<?xml version="1.0" encoding="utf-8" ?><svg xmlns="http://www.w3.org/2000/svg" xmlns:xlink="http://www.w3.org/1999/xlink" width="170" height="159" viewBox="0 0 170 159"><path fill="#4E1614" d="M8.0162 17.5274C11.9058 12.9792 15.7304 11.5571 20.8714 8.75005C26.2016 5.83976 31.3904 1.56802 37.7225 0.986751C41.984 0.891449 46.4851 0.838756 50.7305 0.961809C57.2655 1.15122 67.5824 -0.799126 68.076 8.57627C68.4127 14.9726 66.1247 18.0486 68.4092 24.4291C69.3874 23.1354 70.7941 21.3798 71.5754 20.0031C75.4649 13.1496 82.2932 9.90101 88.4062 5.39597C91.6152 3.12522 95.8155 2.09019 99.5953 1.33499C103.682 0.518388 108.224 1.17811 112.223 0.941072C131.757 -0.216979 149.93 4.85153 159.296 23.4068C161.473 27.7215 161.838 27.2793 162.343 32.4969C164.94 35.3836 164.789 36.172 165.621 39.9292C168.107 51.1498 168.222 62.9631 167.997 74.4127C167.776 77.1369 167.441 79.8647 167.207 82.5872C166.97 85.3483 167.26 88.3364 166.976 91.0457C166.025 100.133 165.135 106.201 160.965 114.343C156.315 123.422 151.808 131.588 144.117 138.635C140.556 141.894 128.157 146.269 123.175 146.108C123.166 147.949 123.25 156.519 123.043 157.789L123.158 159L114.969 159C114.93 155.022 114.917 151.044 114.931 147.066L114.862 147.066C113.839 147.077 113.145 147.654 112.452 147.542C103.317 146.061 90.1949 145.46 83.6137 138.036C75.2951 128.653 71.8151 113.082 83.7584 105.016C90.5725 104.744 95.9783 104.618 101.297 109.9C108.164 116.719 107.977 116.056 117.351 115.968C124.25 109.67 126.541 104.646 126.972 95.2059C127.005 94.4425 127.027 93.6788 127.039 92.9148C121.018 94.2939 117.497 94.2373 111.288 94.1556C109.471 94.1317 104.873 94.2583 103.18 93.8899C96.591 92.4562 90.1029 91.1812 84.3665 87.5899C78.4987 83.9165 72.5908 79.3859 68.8556 73.5458C66.543 77.5959 67.0146 82.2576 67.0459 86.8257C67.106 95.6049 66.8307 104.441 67.3391 113.201C67.9769 117.635 69.1395 122.085 69.6718 126.53C70.2873 131.67 69.9925 136.817 70.9093 141.958C71.1959 143.565 71.3072 145.551 69.3304 145.881C64.6509 146.663 59.9319 147.27 55.1767 147.074C55.1773 148.863 55.3703 156.15 55.0442 157.49L55.1492 159L45.9669 159C45.9164 155.015 45.928 151.03 46.0016 147.046C40.6062 147.554 37.5765 146.104 32.9957 145.955C31.5316 141.969 31.9408 137.801 31.9402 133.629C31.9398 130.892 32.4046 128.017 32.7016 125.292C33.1297 121.363 32.9212 117.46 32.9635 113.516C33.0099 109.193 32.1036 104.951 31.948 100.643C31.9226 91.9654 31.9381 83.2662 31.9388 74.5877L31.9865 35.8432C29.4745 38.0408 22.4633 42.6491 19.0615 42.157C18.2948 42.0461 17.1427 41.8621 16.3581 41.6964C13.5786 38.8632 7.4775 24.3674 7.86412 19.584C7.90954 19.022 7.94717 18.1291 8.0162 17.5274ZM117.169 59.1004C123.434 57.8237 127.53 51.776 126.392 45.4849C125.254 39.1938 119.299 34.9645 112.984 35.963C108.773 36.6289 105.253 39.5217 103.783 43.5235C102.313 47.5252 103.124 52.0092 105.902 55.2424C108.681 58.4757 112.992 59.9519 117.169 59.1004Z"/><path fill="#7E4A32" d="M46.0016 147.046C49.0133 146.953 51.9602 147.037 54.9413 146.981C54.9297 149.005 54.7756 155.765 55.0442 157.49L55.1492 159L45.9669 159C45.9164 155.015 45.928 151.03 46.0016 147.046Z"/><path fill="#7E4A32" d="M114.931 147.066C117.745 146.183 120.017 146.008 122.934 145.986C122.925 148.959 122.745 155.093 123.043 157.789L123.158 159L114.969 159C114.93 155.022 114.917 151.044 114.931 147.066Z"/><path fill="#F9A3C1" d="M105.696 8.07453C108.001 7.82946 111.733 7.98029 114.095 7.91483C122.614 7.67878 128.63 8.04889 136.608 11.392C141.59 13.4798 141.661 14.6497 145.316 17.5503C149.967 21.2408 153.209 24.2813 155.446 30.0264C156.908 33.7812 158.665 39.3904 159.698 43.3285C160.028 44.5841 160.173 48.8189 160.374 50.4331C161.52 59.6342 160.936 69.3341 160.961 78.6228C160.965 80.3762 160.33 84.0291 160.204 86.0378C160.118 87.4089 160.005 92.1353 159.737 93.2264C158.281 99.1564 156.659 106.555 154.6 112.204C154.081 113.625 150.764 118.711 149.76 120.382C145.145 128.059 143.485 133.733 134.824 137.385C124.322 141.813 115.001 141.521 103.865 140.427C100.502 140.096 97.6538 140.172 94.4468 138.8C89.5324 136.697 83.8083 131.458 81.7404 126.519C80.3665 123.238 80.6009 119.045 82.0041 115.787C82.4854 114.872 83.1072 113.939 83.6656 113.06C90.1002 109.667 96.1601 114.251 100.914 118.342C104.815 121.924 105.015 123.625 110.406 124.051C122.135 124.979 127.912 117.945 131.381 107.55C134.548 98.0628 134.007 90.9158 133.984 80.867C129.679 83.5799 125.154 86.2537 119.935 86.8438C98.3777 88.9315 73.4168 80.2605 70.2958 55.9402C68.2 39.609 73.5366 26.4625 85.7667 15.4541C88.8437 12.6844 101.554 8.60673 105.696 8.07453ZM117.169 59.1004C123.434 57.8237 127.53 51.776 126.392 45.4849C125.254 39.1938 119.299 34.9645 112.984 35.963C108.773 36.6289 105.253 39.5217 103.783 43.5235C102.313 47.5252 103.124 52.0092 105.902 55.2424C108.681 58.4757 112.992 59.9519 117.169 59.1004Z"/><path fill="#4E1614" d="M111.483 28.0868C113.762 27.9448 116.047 27.9527 118.325 28.1105C119.61 29.1481 123.318 30.8609 125.179 32.0832C129.316 34.7022 131.885 39.794 132.764 44.5703C134.899 56.1576 128.18 64.9479 116.805 66.9623C100.083 67.9553 91.3 50.5931 99.1315 36.8122C101.339 32.9273 104.642 30.9587 108.66 29.3487C109.709 28.9281 110.28 28.4396 111.483 28.0868ZM117.169 59.1004C123.434 57.8237 127.53 51.776 126.392 45.4849C125.254 39.1938 119.299 34.9645 112.984 35.963C108.773 36.6289 105.253 39.5217 103.783 43.5235C102.313 47.5252 103.124 52.0092 105.902 55.2424C108.681 58.4757 112.992 59.9519 117.169 59.1004Z"/><path fill="#F9A3C1" d="M40.6611 8.10119C44.0913 7.55733 58.2226 7.71943 60.6364 10.0715C61.2233 12.4321 61.0271 20.046 61.0282 22.8867L61.032 45.0206L61.0133 139.012L39.9891 139.015L39.9779 127.375L39.9858 70.7995L39.986 50.116C39.9858 44.582 40.4032 33.2954 38.7577 28.3543C34.1839 24.8627 28.8557 29.4035 25.1187 31.7872C23.2142 33.0021 21.6504 33.7011 19.5369 34.4942C17.837 30.5542 16.0398 24.7522 14.6512 20.5789C17.5354 18.3312 21.4612 16.2635 24.7046 14.4761L26.191 12.1388C30.829 11.8994 30.1039 10.9109 34.17 9.22061C35.1038 8.8324 39.458 8.2444 40.6611 8.10119Z"/></svg>