<?xml version="1.0" encoding="utf-8" ?><svg xmlns="http://www.w3.org/2000/svg" xmlns:xlink="http://www.w3.org/1999/xlink" width="430" height="932" viewBox="0 0 430 932"><path fill="#FBA2BE" d="M0 0L21.8024 0L26.2093 0L396.973 0L401.279 0L430 0L430 421.978L430 425.005L430 932L0 932L0 425.012L0 421.982L0 0ZM63.4687 424.989C64.4601 426.824 69.5415 431.284 69.6933 431.753C70.0209 432.765 68.6957 435.076 68.9799 436.499C69.6081 439.647 72.2625 441.085 73.4184 443.746C75.2272 447.908 73.8751 455.02 79.1907 456.695C81.3986 457.391 84.1562 457.003 86.4476 456.886C89.8498 454.925 91.8066 452.787 94.5133 449.963C101.653 449.8 103.615 453.01 110.601 454.819C115.854 456.179 119.233 456.065 124.572 456.037L127.662 459.013L135.012 458.995C138.394 456.885 142.227 453.472 145.648 452.093C151.896 449.577 157.794 447.621 163.249 443.471C173.128 444.732 178.195 443.058 186.716 438.812C192.7 440.007 194.012 439.85 199.944 438.33C197.67 448.891 194.953 459.15 209.982 462.375C216.756 463.829 225.1 462.428 231.644 460.569C234.373 459.738 238.575 457.657 240.952 457.168C251.144 455.068 258.738 453.895 260.57 441.798C261.271 437.171 260.586 430.347 263.252 426.197C264.667 425.952 271.179 432.171 273.637 433.414C275.953 441.207 284.611 447.409 290.537 452.291C297.61 458.117 299.243 461.447 308.524 456.848C309.174 458.049 309.807 459.434 310.774 460.347L311.111 460.13L315.946 460.096L317.03 460.731C317.877 459.399 318.545 457.342 319.108 455.818C322.235 454.176 323.874 453.586 327.229 452.556C329.518 452.209 334.355 450.01 335.104 450.548C344.404 457.227 352.187 464.767 354.334 447.66C354.64 445.223 360.181 448.643 359.985 436.84C365.703 432.836 367.234 430.855 370.947 425.005L430 425.005L430 421.978L430 0L401.279 0L396.973 0L26.2093 0L21.8024 0L0 0L0 421.982L0 425.012L63.4687 424.989Z"/><path fill="#FDC8D6" d="M0 0L21.8024 0L26.2093 0L396.973 0L401.279 0L430 0L430 421.978L430 425.005L370.947 425.005C367.234 430.855 365.703 432.836 359.985 436.84C360.181 448.643 354.64 445.223 354.334 447.66C352.187 464.767 344.404 457.227 335.104 450.548C334.355 450.01 329.518 452.209 327.229 452.556C323.874 453.586 322.235 454.176 319.108 455.818C318.545 457.342 317.877 459.399 317.03 460.731L315.946 460.096L311.111 460.13L310.774 460.347C309.807 459.434 309.174 458.049 308.524 456.848C299.243 461.447 297.61 458.117 290.537 452.291C284.611 447.409 275.953 441.207 273.637 433.414C271.179 432.171 264.667 425.952 263.252 426.197C260.586 430.347 261.271 437.171 260.57 441.798C258.738 453.895 251.144 455.068 240.952 457.168C238.575 457.657 234.373 459.738 231.644 460.569C225.1 462.428 216.756 463.829 209.982 462.375C194.953 459.15 197.67 448.891 199.944 438.33C194.012 439.85 192.7 440.007 186.716 438.812C178.195 443.058 173.128 444.732 163.249 443.471C157.794 447.621 151.896 449.577 145.648 452.093C142.227 453.472 138.394 456.885 135.012 458.995L127.662 459.013L124.572 456.037C119.233 456.065 115.854 456.179 110.601 454.819C103.615 453.01 101.653 449.8 94.5133 449.963C91.8066 452.787 89.8498 454.925 86.4476 456.886C84.1562 457.003 81.3986 457.391 79.1907 456.695C73.8751 455.02 75.2272 447.908 73.4184 443.746C72.2625 441.085 69.6081 439.647 68.9799 436.499C68.6957 435.076 70.0209 432.765 69.6933 431.753C69.5415 431.284 64.4601 426.824 63.4687 424.989L0 425.012L0 421.982L0 0ZM330.024 190.609C329.912 193.585 329.647 196.263 329.359 199.248C328.874 204.254 327.798 213.361 335.224 213.255C337.597 213.221 341.554 212.338 343.69 212.728C343.914 214.712 342.201 215.307 344.282 217.181C345.662 218.425 348.911 218.048 350.865 218.329C351.028 223.477 350.909 226.965 349.51 231.999C348.871 234.296 348.072 235.571 347.788 238.018C344.431 235.803 341.464 234.393 338.028 232.438C337.464 230.833 336.344 226.854 334.671 226.253C327.986 223.849 332.819 230.619 324.793 228.417C312.237 224.973 300.386 231.786 288.611 234.856C280.219 237.044 270.514 233.039 262.243 237.736C260.305 238.836 254.14 238.55 251.999 241.523C249.374 243.962 246.597 246.334 244.116 248.821C243.624 243.752 237.632 220.401 238.837 218.006C246.956 213.126 245.738 212.409 243.414 205.953C243.516 206.238 243.975 197.607 243.934 196.425C240.968 193.264 239.36 191.72 234.791 192.094L234.752 192.045C232.096 189.718 230.59 188.713 227.6 186.792C223.541 188.93 222.748 190.822 219.996 192.692C217.122 194.646 217.232 191.531 213.004 196.562C213.01 196.889 213.265 202.618 213.43 202.081C210.882 210.374 207.77 212.369 216.831 216.709C213.146 225.548 207.508 234.998 203.139 243.645C201.418 247.051 198.434 253.58 196.416 256.429C195.052 256.899 191.163 255.658 190.54 255.924C186.229 257.761 187.858 259.402 182.648 257.155C174.574 253.672 170.435 251.038 161.536 253.392C158.314 249.865 156.137 247.336 152.031 244.908C152.266 208.309 108.739 211.728 109.059 240.523C109.063 240.819 109.068 241.115 109.075 241.412C97.1399 230.58 87.5024 232.805 76.0991 242.386C72.158 231.899 67.8455 225.622 57.5133 220.436C42.2088 212.756 25.2786 220.202 18.4794 235.38C13.6693 246.117 13.8496 255.863 18.1236 266.862C21.4642 275.238 27.9779 281.957 36.247 285.554C41.9424 288.021 44.9067 288.153 50.9784 288.049C50.6386 298.957 56.0527 291.177 58.6543 293.537C61.8786 296.461 63.3453 302.251 68.1517 304.874C72.5298 307.263 75.6071 307.992 80.492 308.885C83.4285 309.421 89.1323 310.022 90.425 312.93C90.1133 315.575 86.9148 317.299 88.76 319.024C92.9991 322.988 103.938 322.89 108.939 323.097C101.695 326.613 96.6392 330.3 92.9519 337.708C82.867 325.281 69.1322 310.58 52.5747 307.889C45.4944 306.738 39.5344 311.285 39.2093 318.446C38.412 336.012 53.9851 348.413 64.7893 359.46L61.0093 363.819L61.0256 370.169C61.4155 370.773 63.2834 373.693 63.3289 374.165C63.5486 376.443 63.872 382.653 63.4709 384.672C63.1036 386.52 61.061 389.793 60.3491 392.028C56.4856 404.156 57.3763 410.474 61.0845 421.992L0 421.982L0 425.012L63.4687 424.989C64.4601 426.824 69.5415 431.284 69.6933 431.753C70.0209 432.765 68.6957 435.076 68.9799 436.499C69.6081 439.647 72.2625 441.085 73.4184 443.746C75.2272 447.908 73.8751 455.02 79.1907 456.695C81.3986 457.391 84.1562 457.003 86.4476 456.886C89.8498 454.925 91.8066 452.787 94.5133 449.963C101.653 449.8 103.615 453.01 110.601 454.819C115.854 456.179 119.233 456.065 124.572 456.037L127.662 459.013L135.012 458.995C138.394 456.885 142.227 453.472 145.648 452.093C151.896 449.577 157.794 447.621 163.249 443.471C173.128 444.732 178.195 443.058 186.716 438.812C192.7 440.007 194.012 439.85 199.944 438.33C197.67 448.891 194.953 459.15 209.982 462.375C216.756 463.829 225.1 462.428 231.644 460.569C234.373 459.738 238.575 457.657 240.952 457.168C251.144 455.068 258.738 453.895 260.57 441.798C261.271 437.171 260.586 430.347 263.252 426.197C264.667 425.952 271.179 432.171 273.637 433.414C275.953 441.207 284.611 447.409 290.537 452.291C297.61 458.117 299.243 461.447 308.524 456.848C309.174 458.049 309.807 459.434 310.774 460.347L311.111 460.13L315.946 460.096L317.03 460.731C317.877 459.399 318.545 457.342 319.108 455.818C322.235 454.176 323.874 453.586 327.229 452.556C329.518 452.209 334.355 450.01 335.104 450.548C344.404 457.227 352.187 464.767 354.334 447.66C354.64 445.223 360.181 448.643 359.985 436.84C365.703 432.836 367.234 430.855 370.947 425.005L430 425.005L430 421.978L372.842 421.908C375.558 408.005 375.407 401.731 369.893 388.738C371.558 387.624 375.029 385.948 376.928 384.975C377.146 370.978 379.003 359.109 379.034 344.208L379.063 341.618C377.698 341.508 376.527 340.601 376.079 339.307C375.631 338.012 375.991 336.576 376.995 335.645L375.245 334.156L375.004 334.473C372.549 337.745 374.613 342.733 367.5 344.517C363.294 345.571 352.395 353.645 349.093 353.481C347.772 351.737 351.025 347.171 352.12 345.479C360.495 346.355 363.328 342.969 364.018 334.399C364.677 326.21 363.192 318.547 360.513 310.811C362.679 311.362 365.509 311.94 367.564 312.691C377.585 316.356 382.62 308.652 385.843 300.121C382.498 287.499 377.221 278.54 368.801 268.686C363.29 262.236 360.962 260.085 357.636 252.229C358.592 250.6 367.06 239.311 368.301 238.466C370.635 238.67 373.338 239.513 375.286 239.002C377.515 236.799 375.202 235.226 376.628 233.237C379.807 232.509 385.014 233.187 387.404 232.497C431.986 219.615 421.913 144.859 369.526 161.418C364.764 155.374 363.871 149.569 356.28 147.271C348.169 152.119 348.071 155.146 341.897 161.424C338.445 164.935 323.125 164.963 320.597 170.694C318.905 174.392 327.791 187.637 330.024 190.609Z"/><path fill="#561D12" d="M356.28 147.271C363.871 149.569 364.764 155.374 369.526 161.418C421.913 144.859 431.986 219.615 387.404 232.497C385.014 233.187 379.807 232.509 376.628 233.237C375.202 235.226 377.515 236.799 375.286 239.002C373.338 239.513 370.635 238.67 368.301 238.466C367.06 239.311 358.592 250.6 357.636 252.229C360.962 260.085 363.29 262.236 368.801 268.686C377.221 278.54 382.498 287.499 385.843 300.121C382.62 308.652 377.585 316.356 367.564 312.691C365.509 311.94 362.679 311.362 360.513 310.811C363.192 318.547 364.677 326.21 364.018 334.399C363.328 342.969 360.495 346.355 352.12 345.479C351.025 347.171 347.772 351.737 349.093 353.481C352.395 353.645 363.294 345.571 367.5 344.517C374.613 342.733 372.549 337.745 375.004 334.473L375.245 334.156L376.995 335.645C375.991 336.576 375.631 338.012 376.079 339.307C376.527 340.601 377.698 341.508 379.063 341.618L379.034 344.208C379.003 359.109 377.146 370.978 376.928 384.975C375.029 385.948 371.558 387.624 369.893 388.738C375.407 401.731 375.558 408.005 372.842 421.908L430 421.978L430 425.005L370.947 425.005C367.234 430.855 365.703 432.836 359.985 436.84C360.181 448.643 354.64 445.223 354.334 447.66C352.187 464.767 344.404 457.227 335.104 450.548C334.355 450.01 329.518 452.209 327.229 452.556C323.874 453.586 322.235 454.176 319.108 455.818C318.545 457.342 317.877 459.399 317.03 460.731L315.946 460.096L311.111 460.13L310.774 460.347C309.807 459.434 309.174 458.049 308.524 456.848C299.243 461.447 297.61 458.117 290.537 452.291C284.611 447.409 275.953 441.207 273.637 433.414C271.179 432.171 264.667 425.952 263.252 426.197C260.586 430.347 261.271 437.171 260.57 441.798C258.738 453.895 251.144 455.068 240.952 457.168C238.575 457.657 234.373 459.738 231.644 460.569C225.1 462.428 216.756 463.829 209.982 462.375C194.953 459.15 197.67 448.891 199.944 438.33C194.012 439.85 192.7 440.007 186.716 438.812C178.195 443.058 173.128 444.732 163.249 443.471C157.794 447.621 151.896 449.577 145.648 452.093C142.227 453.472 138.394 456.885 135.012 458.995L127.662 459.013L124.572 456.037C119.233 456.065 115.854 456.179 110.601 454.819C103.615 453.01 101.653 449.8 94.5133 449.963C91.8066 452.787 89.8498 454.925 86.4476 456.886C84.1562 457.003 81.3986 457.391 79.1907 456.695C73.8751 455.02 75.2272 447.908 73.4184 443.746C72.2625 441.085 69.6081 439.647 68.9799 436.499C68.6957 435.076 70.0209 432.765 69.6933 431.753C69.5415 431.284 64.4601 426.824 63.4687 424.989L0 425.012L0 421.982L61.0845 421.992C57.3763 410.474 56.4856 404.156 60.3491 392.028C61.061 389.793 63.1036 386.52 63.4709 384.672C63.872 382.653 63.5486 376.443 63.3289 374.165C63.2834 373.693 61.4155 370.773 61.0256 370.169L61.0093 363.819L64.7893 359.46C53.9851 348.413 38.412 336.012 39.2093 318.446C39.5344 311.285 45.4944 306.738 52.5747 307.889C69.1322 310.58 82.867 325.281 92.9519 337.708C96.6392 330.3 101.695 326.613 108.939 323.097C103.938 322.89 92.9991 322.988 88.76 319.024C86.9148 317.299 90.1133 315.575 90.425 312.93C89.1323 310.022 83.4285 309.421 80.492 308.885C75.6071 307.992 72.5298 307.263 68.1517 304.874C63.3453 302.251 61.8786 296.461 58.6543 293.537C56.0527 291.177 50.6386 298.957 50.9784 288.049C44.9067 288.153 41.9424 288.021 36.247 285.554C27.9779 281.957 21.4642 275.238 18.1236 266.862C13.8496 255.863 13.6693 246.117 18.4794 235.38C25.2786 220.202 42.2088 212.756 57.5133 220.436C67.8455 225.622 72.158 231.899 76.0991 242.386C87.5024 232.805 97.1399 230.58 109.075 241.412C109.068 241.115 109.063 240.819 109.059 240.523C108.739 211.728 152.266 208.309 152.031 244.908C156.137 247.336 158.314 249.865 161.536 253.392C170.435 251.038 174.574 253.672 182.648 257.155C187.858 259.402 186.229 257.761 190.54 255.924C191.163 255.658 195.052 256.899 196.416 256.429C198.434 253.58 201.418 247.051 203.139 243.645C207.508 234.998 213.146 225.548 216.831 216.709C207.77 212.369 210.882 210.374 213.43 202.081C213.265 202.618 213.01 196.889 213.004 196.562C217.232 191.531 217.122 194.646 219.996 192.692C222.748 190.822 223.541 188.93 227.6 186.792C230.59 188.713 232.096 189.718 234.752 192.045L234.791 192.094C239.36 191.72 240.968 193.264 243.934 196.425C243.975 197.607 243.516 206.238 243.414 205.953C245.738 212.409 246.956 213.126 238.837 218.006C237.632 220.401 243.624 243.752 244.116 248.821C246.597 246.334 249.374 243.962 251.999 241.523C254.14 238.55 260.305 238.836 262.243 237.736C270.514 233.039 280.219 237.044 288.611 234.856C300.386 231.786 312.237 224.973 324.793 228.417C332.819 230.619 327.986 223.849 334.671 226.253C336.344 226.854 337.464 230.833 338.028 232.438C341.464 234.393 344.431 235.803 347.788 238.018C348.072 235.571 348.871 234.296 349.51 231.999C350.909 226.965 351.028 223.477 350.865 218.329C348.911 218.048 345.662 218.425 344.282 217.181C342.201 215.307 343.914 214.712 343.69 212.728C341.554 212.338 337.597 213.221 335.224 213.255C327.798 213.361 328.874 204.254 329.359 199.248C329.647 196.263 329.912 193.585 330.024 190.609C327.791 187.637 318.905 174.392 320.597 170.694C323.125 164.963 338.445 164.935 341.897 161.424C348.071 155.146 348.169 152.119 356.28 147.271ZM357.58 247.19L360.812 242.83C362.642 240.446 363.25 239.479 364.647 236.824C357.815 234.996 357.647 232.547 362.362 227.986C361.009 226.561 355.009 219.511 354.139 219.088C354.061 228.683 353.737 230.702 350.296 239.901C352.529 242.083 355.577 244.905 357.58 247.19ZM122.616 451.834C122.173 450.718 122.117 450.422 121.174 449.706C117.831 449.401 113.819 450.012 110.523 450.606C112.576 452.95 119.675 452.062 122.616 451.834ZM138.99 324.129C136.352 325.133 132.893 326.18 130.669 327.638C130.681 328.721 130.911 328.685 131.631 329.687C133.959 330.178 136.827 329.995 139.244 329.953C139.199 328.849 139.131 325.007 138.99 324.129ZM346.203 214.783C348.754 214.863 351.832 214.874 354.333 215.045C356.335 214.982 356.163 215.315 357.405 214.275C357.432 211.839 355.141 210.024 352.807 210.095C351.956 210.125 351.106 210.179 350.259 210.258C348.808 211.754 347.442 213.095 346.203 214.783ZM60.6846 285.364C57.506 286.314 56.1447 286.334 54.2474 289.043L54.1153 290.254L54.7533 290.987C55.499 290.866 56.0053 290.861 56.612 290.414C58.7371 289.05 63.155 288.916 63.7161 287.26C62.8259 286.303 62.3587 285.59 61.1132 285.282L60.6846 285.364ZM365.639 229.836L363.776 231.764C364.041 233.755 370.002 234.983 372.074 235.76L372.839 235.818L373.298 234.868C372.248 231.889 368.496 230.92 365.639 229.836ZM135.818 333.972C136.979 336.645 139.215 343.599 141.241 344.75L142.871 343.998C142.279 341.791 141.026 335.487 139.465 334.426C137.06 334.722 137.869 334.916 135.818 333.972Z"/><path fill="#571917" d="M327.194 447.362C327.629 448.601 327.319 448.18 328.359 448.962C327.837 449.884 327.691 450.042 326.944 450.796C326.966 451.45 326.908 452.004 327.229 452.556C323.874 453.586 322.235 454.176 319.108 455.818C318.545 457.342 317.877 459.399 317.03 460.731L315.946 460.096L311.111 460.13C310.797 458.451 310.77 458.094 310.868 456.39C311.817 454.754 311.492 455.246 313.411 454.319C312.95 453.195 312.951 452.894 312.85 451.676L313.519 451.181C314.197 451.361 314.664 451.505 315.328 451.733C315.39 452.813 315.221 452.454 315.848 453.227C318.708 453.574 324.762 449.114 327.194 447.362Z"/><path fill="#FBA2BE" d="M313.411 454.319C314.84 454.695 316.153 454.83 316.956 456.019C317.22 457.574 316.913 458.721 315.946 460.096L311.111 460.13C310.797 458.451 310.77 458.094 310.868 456.39C311.817 454.754 311.492 455.246 313.411 454.319Z"/><path fill="#485764" d="M316.202 446.443C318.636 446.342 325.395 445.789 327.359 446.31L327.194 447.362C324.762 449.114 318.708 453.574 315.848 453.227C315.221 452.454 315.39 452.813 315.328 451.733L316.202 446.443Z"/><path fill="#FBF167" d="M301.273 234.429C303.727 234.339 303.549 237.492 305.098 238.982C316.792 250.229 339.445 258.703 355.526 256.272C356.914 263.02 366.813 270.75 370.693 276.72C375.015 283.369 379.938 292.019 382.46 299.49C382.344 299.825 382.217 300.155 382.078 300.48C379.826 305.708 377.981 308.278 372.822 310.36C368.916 309.226 365.336 308.23 361.537 306.727C359.742 298.613 359.123 285.034 361.731 277.198C360.111 278.741 358.791 280.105 357.271 281.73C357.718 285.667 357.225 289.703 357.278 293.689C357.347 298.761 358.315 303.246 359.413 308.171C355.064 319.16 368.362 335.73 355.111 343.062C353.116 341.85 352.213 341.049 350.479 339.554C350.447 336.128 351.154 330.033 349.336 327.546C348.09 327.033 348.629 327.064 347.306 327.456C346.924 328.497 348.987 341.063 348.142 344.305C347.143 348.137 346.272 349.537 344.565 353.165C339.117 353.015 336.926 352.719 331.839 354.565C330.434 358.002 328.419 361.93 326.784 365.319C319.933 365.464 313.924 366.401 307.287 367.761C298.493 370.792 304.452 366.629 296.396 363.748C290.066 361.485 283.696 358.893 277.393 356.503C278.284 355.224 279.351 354.075 280.387 352.909C283.225 353.787 289.608 356.31 292.032 354.584L291.717 353.685C288.449 350.856 285.137 350.31 281.028 349.179C281.871 345.576 282.815 341.998 283.858 338.448C288.358 338.478 292.959 340.074 297.037 339.644C298.214 338.933 298.228 339.181 298.725 338.052C297.251 335.191 286.999 334.66 283.983 334.366C284 331.55 282.838 319.897 283.934 318.347C289.626 310.293 299.324 295.462 284.962 290.331C284.776 280.743 287.012 273.659 279.336 266.348C276.822 266.112 274.308 265.861 271.796 265.596C269.578 263.163 281.769 255.703 281.831 251.441C277.567 250.957 269.112 262.369 267.229 265.909C261.926 266.123 259.352 267.094 254.276 268.512C251.256 264.363 250.413 262.987 246.112 260.279C245.356 255.101 245.337 252.29 249.43 248.209C260.42 237.251 275.457 239.432 289.451 238.263C293.489 237.926 296.804 235.468 301.273 234.429Z"/><path fill="#552407" d="M300.965 287.919C304.455 289.031 306.678 291.504 309.197 294.059C310.786 294.168 312.374 294.306 313.959 294.472C323.952 295.603 319.885 303.343 313.669 307.24C310.443 305.198 308.759 301.74 307.339 298.354C303.861 298.941 298.654 300.655 296.029 298.129C294.98 294.897 298.104 289.545 300.965 287.919Z"/><path fill="#FBA2BE" d="M309.517 297.156C312.445 296.971 316.158 296.326 317.466 299.538C317.042 300.945 316.98 301.132 315.967 302.231C315.275 303.151 315.165 303.443 314.169 303.936L313.033 303.518C311.538 302.201 310.386 299.085 309.517 297.156Z"/><path fill="#FBA2BE" d="M301.299 290.609C303.082 291.491 306.89 293.856 306.266 296.083L304.18 296.882C302.177 297.18 299.196 297.235 297.106 297.337L301.299 290.609Z"/><path fill="#552407" d="M319.503 277.886C315.288 279.657 317.246 288.765 323.047 287.072C324.42 285.964 323.859 284.298 324.877 282.313C325.971 283.026 325.946 283.327 326.318 284.609C327.683 289.313 319.432 290.452 317.865 287.96C315.32 283.911 315.921 282.963 310.536 283.58C305.229 284.187 302.053 280.186 306.091 275.762C307.653 275.109 307.006 275.109 308.505 275.714L308.56 276.515C307.173 277.983 306.307 278.383 307.14 280.3C312.11 283.704 314.576 280.67 317.38 277.07C318.174 277.665 318.509 277.661 319.503 277.886Z"/><path fill="#552407" d="M317.38 277.07C316.394 275.641 315.529 274.65 315.292 272.945L315.651 271.946C318.382 271.314 320.873 273 322.571 275.063C322.767 276.559 322.914 275.998 322.056 277.172C321.134 277.566 320.483 277.965 319.503 277.886C318.509 277.661 318.174 277.665 317.38 277.07Z"/><path fill="#552407" d="M342.639 276.535C343.933 276.114 345.324 276.81 345.762 278.098C346.2 279.386 345.521 280.787 344.239 281.241C343.395 281.54 342.455 281.361 341.78 280.774C341.104 280.187 340.796 279.281 340.974 278.404C341.152 277.526 341.788 276.812 342.639 276.535Z"/><path fill="#552407" d="M297.437 259.166L299.11 259.54C300.405 260.817 300.086 260.188 300.398 261.887C299.618 263.649 300.007 263.078 298.297 264.192C296.776 263.527 295.989 263.265 295.152 261.963C295.696 260.221 295.817 260.549 297.437 259.166Z"/><path fill="#FEFEFE" d="M167.065 257.691C171.889 257.914 176.964 259.776 181.35 261.743C184.167 263.005 183.16 265.853 184.739 268.289C185.053 268.862 187.597 271.362 187.61 271.769C187.76 276.381 186.994 278.366 191.808 280.866C196.051 283.068 197.347 276.434 200.54 280.213C203.738 283.998 209.939 280.696 213.762 282.909C214.036 283.066 215.602 283.999 215.973 284.303C215.976 291.518 217 298.795 224.357 302.31C229.237 304.641 235.19 304.365 240.363 302.487C245.818 308.579 247.436 310.902 256.012 310.976C258.198 319.297 262.629 326.171 272.636 324.496C274.23 324.229 276.393 323.361 277.943 323.605C279.509 325.617 279.048 331.308 279.011 334.067C275.473 333.995 270.706 333.884 267.728 335.904L267.624 336.66C270.051 338.556 275.086 338.086 278.24 338.043C278.113 340.826 277.278 344.783 276.763 347.621C274.527 347.299 271.318 346.433 269.574 348.17L269.721 349.058C270.98 350.402 273.277 350.81 275.111 351.327C274.157 353.628 271.358 357.966 269.954 360.272C268.047 358.68 265.239 357.029 262.756 358.121L262.689 359.122C263.528 360.85 265.714 361.962 267.392 363.042C259.111 370.199 251.825 372.799 241.263 374.428L236.803 375.459C233.654 372.057 231.662 370.309 228.17 367.35C227.542 364.643 226.497 363.15 225.039 360.875C223.276 360.08 221.229 359.304 219.417 358.568C212.31 361.317 206.969 361.277 201.081 365.427C200.9 365.031 200.712 364.638 200.516 364.249C197.579 358.434 194.419 356.834 188.215 356.209C177.975 355.178 173.53 350.817 169.554 363.134C159.895 358.03 156.655 355.233 149.864 347.12C151.914 346.593 154.602 346.27 155.558 344.277C154.083 342.456 149.744 343.044 147.537 343.117C146.469 339.67 145.967 337.553 145.296 334.003C147.361 334.001 151.787 334.357 152.627 332.058C150.644 329.776 146.87 330.119 144.029 330.006C143.861 327.048 143.973 323.681 144.008 320.684C144.176 320.723 144.345 320.761 144.513 320.798C147.291 321.397 151.107 322.524 153.466 320.988L153.39 320.17C150.79 317.676 148.183 317.551 144.658 316.878C147.538 308.36 148.88 300.852 154.195 293.064C155.979 290.45 160.069 287.288 160.611 284.32C159.464 282.711 157.495 284.85 155.64 283.081C154.503 275.199 158.021 259.622 167.065 257.691Z"/><path fill="#552407" d="M203.306 337.274C207.644 336.878 209.775 336.55 213.719 338.862C218.301 341.548 217.084 345.617 212.965 347.868C206.625 349.374 203.599 347.551 199.928 342.702C200.955 340.288 201.544 339.192 203.306 337.274Z"/><path fill="#FBF167" d="M204.95 339.999C207.641 339.817 210.604 339.38 212.401 341.717C212.848 343.177 212.907 343.377 212.497 344.894C211.313 345.02 210.124 345.079 208.934 345.07C206.648 345.062 206.105 344.933 204.62 343.431C204.099 341.949 204.407 341.478 204.95 339.999Z"/><path fill="#561D12" d="M172.964 322.187C174.846 321.968 177.073 321.586 178.463 323.087C181.582 326.454 180.275 331.641 177.229 334.536C168.282 336.821 168.69 327.663 172.964 322.187Z"/><path fill="#561D12" d="M243.047 333.012C251.74 333.656 250.448 342.519 244.3 346.777C237.245 346.099 237.238 337.148 243.047 333.012Z"/><path fill="#EC61A4" d="M115.071 325.939C126.968 326.68 132.403 335.75 136.657 345.44C133.969 346.399 131.151 346.911 129.874 349.277L130.246 350.343C132.754 351.317 135.459 349.225 137.797 350.286C140 352.647 142.1 371.46 141.983 375.439C152.279 385.421 159.36 397.925 155.288 412.613C152.97 420.976 144.648 426.579 137.393 430.386C138.09 428.94 138.633 427.424 139.011 425.864C142.094 413.513 124.87 406.13 115.578 403.666C102.012 400.07 86.1188 399.92 73.8048 407.694C68.2044 411.275 66.7306 413.558 64.3503 419.6C63.8353 417.755 63.3472 415.903 62.8862 414.044C61.2041 407.13 61.8571 396.156 65.24 389.792C67.4155 385.699 71.2698 386.788 74.1864 386.382C77.1749 385.967 80.7001 379.728 82.1141 377.14C88.1572 382.041 89.6854 383.478 97.3509 382.893C97.6481 382.647 97.9421 382.396 98.2327 382.142C105.658 375.633 98.8327 371.051 99.0565 367.658C108.847 365.986 114.928 363.267 119.491 353.624C120.774 350.914 122.385 346.807 121.355 343.884L120.621 343.621C120.477 343.735 119.453 344.543 119.453 344.543C118.149 349.956 115.095 355.58 110.992 359.348C106.534 363.443 102.976 363.283 97.4741 362.998C87.6345 354.223 94.8315 336.808 104.195 330.403C108.262 327.622 110.277 326.918 115.071 325.939Z"/><path fill="#485764" d="M321.893 368.766C323.066 368.594 325.771 368.528 327.068 368.456C336.429 376.012 346.905 379.623 358.766 380.425C370.641 394.133 373.789 403.883 368.941 421.935C366.318 408.541 362.245 402.077 348.534 398.859C343.071 400.448 338.942 403.9 334.286 407.198C328.61 405.978 320.22 401.84 314.978 401.591C310.697 403.12 307.832 404.217 304.231 407.003C294.083 414.854 290.012 428.314 298.211 439C287.051 434.134 279.88 428.337 277.83 415.731C276.187 405.993 278.535 396.003 284.345 388.018C294.42 374.233 306.183 371.181 321.893 368.766Z"/><path fill="#FBA2BE" d="M328.765 379.161C334.154 378.608 341.438 379.727 343.28 384.93C345.768 391.957 343.776 395.02 337.791 397.897C337.353 398.108 337.947 399.276 335.974 400.14C334.212 399.73 334.755 399.893 333.359 398.454L332.48 399.695L332.082 400.429C331.277 400.271 331.047 399.918 330.523 399.316C329.576 400.446 329.973 400.312 328.78 400.609C325.051 399.832 321.073 397.383 318.145 394.983C317.643 391.75 317.708 390.109 317.931 386.88C320.975 381.626 323.167 380.544 328.765 379.161Z"/><path fill="#485764" d="M323.039 389.865C325.042 389.909 325.184 389.853 326.073 391.467C326.028 393.346 325.936 393.687 325.384 395.493C323.636 394.97 323.234 394.778 322.241 393.428C321.982 392.006 322.472 391.202 323.039 389.865Z"/><path fill="#485764" d="M337.27 389.44C337.895 388.881 338.786 388.735 339.556 389.065C340.327 389.394 340.837 390.14 340.865 390.977C340.893 391.814 340.434 392.592 339.687 392.973C338.721 393.465 337.539 393.164 336.927 392.268C336.314 391.373 336.461 390.162 337.27 389.44Z"/><path fill="#FBA2BE" d="M44.0299 219.929C59.3784 220.561 69.0028 230.604 74.0748 244.278C70.6582 255.495 70.9651 254.246 73.4213 265.519C70.759 275.63 61.3848 283.977 50.9154 284.966C43.1772 285.131 39.126 284.888 32.5354 280.323C25.0701 275.222 19.9966 267.307 18.478 258.393C15.1448 239.336 24.4457 223.278 44.0299 219.929Z"/><path fill="#FEFEFE" d="M23.886 247.88C24.7669 247.937 25.6772 248.07 26.5556 248.182C29.4455 250.699 27.3112 254.827 28.5598 258.254C30.1976 262.75 34.0931 265.339 30.829 270.159C23.9936 270.643 21.2708 253.093 23.886 247.88Z"/><path fill="#FEFEFE" d="M26.0139 241.45C26.7661 240.902 27.7573 240.807 28.5999 241.203C29.4425 241.598 30.0025 242.422 30.061 243.351C30.1195 244.28 29.6671 245.167 28.8808 245.665C27.7185 246.402 26.1816 246.083 25.4077 244.945C24.6338 243.808 24.9021 242.261 26.0139 241.45Z"/><path fill="#FBA2BE" d="M356.243 150.561C362.861 151.89 366.475 166.08 369.82 167.38C391.452 175.784 391.351 174.021 376.397 191.748C374.161 194.399 376.271 210.567 371.82 212.859C368.879 213.777 358.787 208.946 356.136 207.272C351.399 205.524 345.797 209.071 340.66 209.723C337.681 210.101 336.222 210.119 333.191 210.11C331.203 202.959 333.105 196.804 333.038 188.969C318.381 170.988 321.789 169.323 342.449 165.827C345.672 162.496 352.813 151.569 356.243 150.561Z"/><path fill="#FEFEFE" d="M355.538 158.791C360.452 158.715 364.203 165.354 365.03 169.76C365.282 171.103 364.396 172.282 363.515 173.213C362.083 173.182 361.076 173.29 359.985 172.248C356.562 168.978 351.351 163.307 355.538 158.791Z"/><path fill="#FEFEFE" d="M370.524 173.209C372.019 172.421 373.87 172.947 374.728 174.403C375.585 175.86 375.149 177.733 373.736 178.66C372.759 179.3 371.51 179.351 370.484 178.793C369.459 178.234 368.824 177.157 368.832 175.989C368.841 174.821 369.491 173.753 370.524 173.209Z"/><path fill="#67D5F0" d="M240.472 379.672C244.27 380.835 245.327 384.696 248.016 387.04C251.12 389.746 255.273 392.031 258.773 394.351C256.923 395.207 254.216 396.275 252.668 397.609C245.501 403.784 249.395 413.494 257.841 415.749C258.999 416.058 261.052 416.047 262.285 416.092C261.315 420.638 260.77 424.708 256.018 426.461C253.965 427.218 251.984 428.249 249.793 428.6C249.215 426.838 248.857 424.118 246.796 424.291C245.477 425.311 244.01 428.361 243.131 429.948C234.38 433.736 213.634 434.186 203.785 434.069L201.055 430.271C194.708 421.225 193.467 419.159 191.692 408.551C199.15 409.599 205.821 406.986 201.578 397.673C200.083 394.391 194.096 396.114 191.087 395.621C190.305 394.317 190.666 392.778 190.724 391.039C196.368 390.529 197.574 390.5 202.579 387.909C203.878 389.705 211.967 396.757 213.974 397.752C231.483 406.429 246.512 401.921 240.472 379.672Z"/><path fill="#8ED18C" d="M115.694 255.198C127.942 267.747 143.243 259.863 151.588 247.621C153.59 249.273 158.129 252.413 158.67 254.873C158.909 255.959 158.132 256.473 157.345 257.473C154.853 260.783 153.449 261.967 152.819 265.99C152.87 267.72 151.922 270.976 151.478 272.751C150.126 278.151 149.941 280.527 150.446 285.973C147.354 288.156 140.94 291.291 137.36 292.52C139.407 289.108 141.541 285.729 143.841 282.483C145.037 280.796 146.391 279.221 145.033 277.261C142.239 277.59 133.72 290.928 130.811 294.489C126.411 294.422 110.727 290.833 109.273 293.497L109.839 294.384C112.244 295.892 122.579 297.089 125.709 297.387C102.719 307.698 82.8333 309.031 82.8427 277.535C100.896 283.001 113.867 274.12 115.694 255.198Z"/><path fill="#FBA2BE" d="M152.819 265.99C150.909 264.908 149.458 264.067 149.091 261.708C148.873 260.321 149.231 258.905 150.082 257.788C152.128 255.152 154.993 255.583 157.345 257.473C154.853 260.783 153.449 261.967 152.819 265.99Z"/><path fill="#FBA2BE" d="M96.7252 285.1C99.3906 284.407 102.119 285.982 102.853 288.636C103.587 291.291 102.056 294.043 99.4135 294.819C97.667 295.332 95.7797 294.864 94.4756 293.594C93.1715 292.324 92.653 290.449 93.1191 288.689C93.5852 286.93 94.9635 285.558 96.7252 285.1Z"/><path fill="#FEFEFE" d="M348.498 401.815C349.873 402.181 351.259 402.551 352.606 403.006C362.893 406.488 368.761 419.868 362.925 429.425C361.803 431.262 360.186 432.539 358.572 433.925C356.78 433.276 354.723 432.664 352.89 432.07C346.754 433.628 346.352 434.629 342.704 439.843C335.441 442.217 325.953 443.069 318.269 442.971C317.427 442.96 316.607 439.481 314.83 437.393L314.695 437.237C309.988 431.52 305.65 432.648 299.398 434.763C298.64 434.389 298.231 433.722 297.959 432.953C294.986 424.354 298.85 414.971 305.806 409.53C309.173 406.896 311.982 405.894 315.936 404.409C335.467 412.411 331.455 411.266 348.498 401.815Z"/><path fill="#561D12" d="M305.006 411.215C310.344 415.947 321.82 416.842 313.174 427.641C302.477 430.496 305.63 416.653 305.046 411.545L305.006 411.215Z"/><path fill="#561D12" d="M356.681 406.443L356.813 406.612C356.841 407.746 356.948 408.104 357.587 409.041C357.484 414.851 360.3 423.032 351.867 423.072C340.77 413.872 354.394 410.964 356.681 406.443Z"/><path fill="#FBF167" d="M334.635 421.331C335.91 421.159 336.35 421.461 337.491 421.982C339.497 424.494 337.889 425.86 335.861 427.491C333.614 426.958 331.422 426.452 331.448 423.813C332.106 422.37 333.193 422.039 334.635 421.331Z"/><path fill="#3E2E2B" d="M337.881 429.974L338.17 430.276C338.77 434.822 330.8 434.831 327.444 431.842L327.453 430.893C331.514 433.027 334.941 434.911 337.881 429.974Z"/><path fill="#67D5F0" d="M381.664 161.67C391.931 160.768 402.083 166.848 407.306 175.524C412.173 183.791 413.608 193.635 411.303 202.947C406.226 223.016 390.447 233.507 370.198 228.218C365.425 225.828 362.274 223.571 358.985 219.422C360.565 216.886 360.815 216.523 361.117 213.51C379.62 221.024 378.488 208.276 378.699 193.767C395.639 174.666 394.832 172.451 370.569 164.629C374.324 163.244 377.757 162.462 381.664 161.67Z"/><path fill="#FEFEFE" d="M402.85 189.696C413.619 190.3 405.619 209.593 401.741 211.399C400.017 211.268 399.494 211.296 398.007 210.446C394.84 206.034 400.908 201.524 401.649 197.22C402.158 194.26 398.749 192.95 402.85 189.696Z"/><path fill="#FEFEFE" d="M400.732 179.093C401.799 178.624 403.038 178.778 403.958 179.493C404.879 180.209 405.333 181.372 405.142 182.522C404.951 183.672 404.145 184.625 403.042 185.005C401.432 185.559 399.671 184.744 399.051 183.157C398.431 181.571 399.173 179.778 400.732 179.093Z"/><path fill="#FEFEFE" d="M93.5871 404.247C104.688 402.887 131.55 408.095 136.509 421.19C136.922 422.28 136.365 426.034 135.538 426.278C128.685 428.301 123.778 428.068 119.523 435.181C116.611 435.839 115.615 435.924 112.628 436.012C108.791 436.041 94.9335 436.393 92.3981 435.428C80.3786 430.852 87.7854 428.338 72.65 429.309C71.1982 427.859 69.5185 426.496 67.9464 425.165C66.1411 409.597 81.6685 406.337 93.5871 404.247Z"/><path fill="#561D12" d="M121.277 413.213C125.713 412.59 126.156 413.532 128.723 416.887C129.252 421.035 129.586 422.438 126.71 425.561C118.915 427.898 118.228 417.979 121.277 413.213Z"/><path fill="#561D12" d="M77.5687 411.292C82.9205 411.952 83.6316 421.07 77.6992 424.084C70.329 423.936 72.2249 414.416 77.5687 411.292Z"/><path fill="#FBF167" d="M93.7299 423.151C96.4537 422.918 99.1745 422.266 100.958 424.522C101.321 426.22 100.798 427.188 100.196 428.843C95.6796 429.079 91.4581 429.232 93.7299 423.151Z"/><path fill="#3E2E2B" d="M103.483 429.511C103.865 430.137 103.792 430.399 103.776 431.127C101.158 434.017 96.1577 432.86 93.0184 431.423C93.2995 430.514 93.034 430.84 93.7454 430.346C97.4703 432.261 100.535 432.78 103.483 429.511Z"/><path fill="#EC61A4" d="M48.4338 311.885C49.3929 311.861 52.875 311.783 53.6148 311.944C68.6282 315.227 82.5046 330.601 91.153 341.938C89.8722 346.308 89.3243 351.061 89.16 355.603C85.2037 358.245 83.6106 359.89 82.4782 364.678C82.0405 365.467 81.8184 365.58 81.1141 366.172C78.0859 366.538 76.8894 363.421 74.335 361.633C58.3707 350.457 46.817 338.105 41.8313 319.035C43.5753 315.203 44.1568 313.172 48.4338 311.885Z"/><path fill="#FEFEFE" d="M91.7579 237.642C102.247 236.94 111.354 244.796 112.199 255.276C113.045 265.755 105.316 274.97 94.8499 275.959C87.9511 276.611 81.2353 273.499 77.2729 267.813C73.3106 262.128 72.7152 254.749 75.7146 248.502C78.714 242.254 84.8438 238.105 91.7579 237.642Z"/><path fill="#561D12" d="M100.013 248.109C108.623 247.334 110.293 256.238 104.687 258.92C103.794 258.961 100.622 259.106 100.031 258.837C94.3271 256.232 95.4037 250.456 100.013 248.109Z"/><path fill="#FEFEFE" d="M129.398 220.77C142.323 219.211 154.679 239.651 146.038 250.159C142.53 254.426 137.841 257.373 132.4 258.279C128.616 258.506 125.895 258.512 122.412 256.575C113.862 251.82 109.318 239.059 114.379 230.316C117.976 224.101 122.913 222.48 129.398 220.77Z"/><path fill="#561D12" d="M120.274 239.048C129.537 237.816 132.75 246.074 125.25 249.142C118.185 251.078 113.455 243.342 120.274 239.048Z"/><path fill="#67D5F0" d="M232.806 218.668L233.479 219.088C234.728 222.344 241.079 255.574 241.172 258.362C238.59 259.184 235.259 260.875 232.728 262.072L232.49 262.005C228.05 260.802 228.73 261.388 224.959 261.132C221.015 260.864 220.217 257.716 213.837 255.841C209.437 259.968 209.066 255.489 203.462 253.551C208.158 243.348 215.844 228.483 221.528 218.962L224.597 221.976C229.767 222.125 229.57 222.805 232.806 218.668Z"/><path fill="#FEFEFE" d="M160.201 406.462C168.02 407.797 168.975 416.391 175.894 416.837C177.953 415.428 176.677 414.649 178.735 412.52C184.38 411.117 195.515 429.153 198.026 434.023C196.826 437.462 188.092 435.546 185.379 435.09C183.449 436.226 181.256 437.347 179.269 438.416C174.526 440.298 167.44 440.658 162.535 439.374C159.654 441.627 150.501 447.821 146.895 446.898C146.46 443.47 164.088 436.802 155.994 420.354C159.168 413.831 159.548 413.958 160.201 406.462Z"/><path fill="#924F3A" d="M333.116 228.175C335.26 229.661 335.274 232.009 335.787 234.68C341.879 236.464 355.627 244.657 356.026 251.473C353.309 258.649 341.05 252.247 336.192 252.264C334.248 252.271 332.291 251.612 330.482 250.942C325.277 248.752 304.743 240.623 305.905 233.543C306.762 231.884 308.483 230.948 310.05 229.885C314.501 229.542 319.105 228.995 323.543 229.495C326.85 229.868 329.627 232.931 332.622 232.039C333.27 231.073 333.082 229.509 333.116 228.175Z"/><path fill="#FEFEFE" d="M239.485 435.676L240.915 435.537C242.164 437.448 241.046 441.319 240.78 443.327C239.081 456.112 231.323 457.177 220.219 458.33C214.656 458.907 212.15 458.754 206.703 456.577C198.723 452.681 202.821 444.624 204.817 437.822C215.238 437.866 229.346 437.301 239.485 435.676Z"/><path fill="#485764" d="M275.61 359.888C279.629 361.032 294.725 366.129 297.313 368.601C297.724 369.602 298.135 370.844 297.125 371.631C287.188 379.378 280.389 383.88 276.081 396.716C274.064 395.977 270.505 393.954 268.122 392.902L265.955 392.65C265.737 392.486 265.472 392.287 265.159 392.051C263.926 386.413 262.735 378.909 261.779 373.377C265.096 371.359 269.022 368.243 272.193 365.85C275.302 367.517 285.058 375.789 287.128 372.709C286.65 368.881 275.974 364.106 274.896 362.034L275.61 359.888Z"/><path fill="#EC61A4" d="M237.576 263.076C239.45 262.998 241.555 263.021 243.452 262.998C251.211 269.475 250.905 271.665 254.242 280.766C254.01 280.868 253.777 280.967 253.543 281.065C248.925 282.982 248.06 280.268 242.544 277.981C237.316 279.481 234.095 281.442 233.968 287.981C233.929 289.966 235.368 292.949 237.238 293.788C238.602 294.695 239.267 295.547 239.59 297.134C238.17 300.543 230.252 299.426 227.149 298.884C220.46 297.717 219.587 291.327 220.769 285.693C223.057 274.785 228.601 269.115 237.576 263.076Z"/><path fill="#67D5F0" d="M201.774 257.611C208.511 258.165 204.986 261.476 208.42 263.525C212.323 263.332 215.786 254.99 220.504 265.504C221.738 268.255 224.342 263.959 227.728 264.497C227.975 265.38 226.658 266.323 225.771 267.358C222.093 271.647 219.867 276.61 217.463 281.662C214.51 279.303 213.362 278.697 212.318 274.996L210.622 275.067C208.831 276.245 209.598 276.845 208.428 278.06C205.211 281.4 201.668 274.507 200.069 272.81C199.2 272.927 196.217 276.107 193.669 277.483L189.979 274.681C191.169 273.261 191.861 272.472 192.78 270.876C192.806 268.239 188.189 267.391 187.607 264.805C185.824 256.882 195.383 261.126 198.102 262.159C199.2 259.936 199.585 258.647 201.774 257.611Z"/><path fill="#FDC8D6" d="M141.779 348.129C142.398 348.059 145.227 347.708 145.545 348.31C150.482 357.643 159.465 363.283 168.866 367.994C166.047 372.688 165.347 376.58 164.427 381.9C164.425 382.238 164.417 382.575 164.404 382.913C164.189 388.346 160.007 387.288 155.958 387.048C151.419 380.633 152.452 380.754 146.22 374.207C144.386 367.281 143.566 356.194 141.779 348.129Z"/><path fill="#FDC8D6" d="M75.2323 269.678C76.7873 271.118 78.6966 273.84 80.0249 275.602C79.9138 284.804 79.8136 292.254 85.839 299.878C87.7422 302.286 92.462 304.352 91.8383 307.451C89.5724 308.893 81.085 306.448 78.3671 305.752C77.4381 305.507 76.5126 305.25 75.5908 304.98C67.6719 302.642 65.45 298.57 61.7916 291.845C67.4822 290.16 69.755 287.662 63.7916 283.498C69.2608 278.519 71.6249 276.085 75.2323 269.678Z"/><path fill="#485764" d="M375.33 344.064C376.721 345.91 373.856 377.95 373.513 383.238C370.992 384.229 370.205 384.77 367.999 386.237C366.002 383.155 363.433 381.08 361.589 378.037C361.217 377.423 361.846 376.496 362.186 375.79C363.349 373.36 364.852 368.84 365.824 366.169C362.109 361.099 357.959 358.714 352.691 355.576C360.853 352.19 367.385 347.405 375.33 344.064Z"/><path fill="#FEFEFE" d="M177.635 358.492C180.424 358.451 182.038 360.89 183.797 360.79C187.213 360.498 188.829 359.503 192.081 361.212C201.752 366.295 197.703 377.418 192.249 383.804C191.247 385.006 191.728 384.734 190.429 385.129C184.144 383.998 179.389 380.454 175.375 375.538C174.083 373.955 172.439 371.407 172.975 369.127C173.045 368.901 174.677 366.921 174.672 366.993C175.033 361.997 173.507 361.577 177.635 358.492Z"/><path fill="#FEFEFE" d="M218.378 363.022C222.906 362.899 222.704 366.71 224.251 369.747C224.543 370.32 226.672 371.976 227.289 372.455C225.008 376.273 215.587 389.225 211.908 390.57C211.502 390.317 211.103 390.055 210.709 389.784C206.214 386.676 202.993 382.14 202.021 376.687C200.604 368.738 206.396 366.574 212.997 365.644C215.34 365.314 216.431 364.375 218.378 363.022Z"/><path fill="#EC61A4" d="M269.482 292.148C290.648 290.313 293.47 301.968 279.901 316.333C276.684 319.739 273.436 321.161 268.739 321.071C263.995 320.117 258.403 312.639 260.632 309.51C264.958 309.398 272.586 316.717 275.575 305.473C274.589 297.321 272.708 300.336 269.104 295.785C268.737 294.428 269.116 293.51 269.482 292.148Z"/><path fill="#EC61A4" d="M249.537 285.951C252.523 285.687 254.826 285.753 257.822 285.82C265.571 290.277 267.328 295.518 262.85 303.499L258.206 306.426C256.042 307.396 253.207 307.136 250.834 307.073C241.477 300.455 241.379 293.572 249.537 285.951Z"/><path fill="#FEFEFE" d="M267.891 270.957C271.39 270.808 273.519 270.82 277.008 271.062C281.496 276.764 280.598 281.569 280.286 288.591C276.056 288.239 273.273 288.261 269.086 288.748C268.913 288.82 268.102 288.852 267.857 288.869C264.365 285.499 261.475 283.598 257.288 281.237C257.033 278.405 256.666 275.486 256.345 272.653C260.693 271.819 263.453 271.365 267.891 270.957Z"/><path fill="#FEFEFE" d="M136.872 295.504C140.059 294.611 146.823 291.214 148.546 291.715C148.648 293.856 144.455 300.619 143.437 303.51C142.786 306.526 142.103 308.731 141.16 311.676C140.586 313.216 140.006 314.665 139.637 316.272C137.96 315.968 135.553 315.451 133.925 315.259C132.614 314.942 129.368 314.96 127.582 314.769C126.509 313.231 123.722 303.885 123.11 301.613C125.544 301.006 130.087 298.913 132.565 297.853L136.872 295.504Z"/><path fill="#EC61A4" d="M136.872 295.504C140.059 294.611 146.823 291.214 148.546 291.715C148.648 293.856 144.455 300.619 143.437 303.51C142.786 306.526 142.103 308.731 141.16 311.676C136.874 309.768 133.43 302.143 132.565 297.853L136.872 295.504Z"/><path fill="#FEFEFE" d="M136.872 295.504C140.059 294.611 146.823 291.214 148.546 291.715C148.648 293.856 144.455 300.619 143.437 303.51C139.831 301.576 138.442 299.109 136.872 295.504Z"/><path fill="#FEFEFE" d="M117.473 303.604C117.702 303.601 122.314 301.874 123.11 301.613C123.722 303.885 126.509 313.231 127.582 314.769C129.368 314.96 132.614 314.942 133.925 315.259C130.925 315.225 129.253 315.08 126.363 315.95L125.837 316.546C126.922 318.536 128.426 318.66 130.683 319.382C130.939 320.814 132.344 321.79 133.406 322.737C130.927 324.213 128.716 324.98 125.828 325.193C118.256 322.863 121.693 321.677 111.026 322.164C110.732 317.173 110.872 313.569 111.065 308.581C113.23 304.906 113.499 304.841 117.473 303.604Z"/><path fill="#EC61A4" d="M117.473 303.604C117.702 303.601 122.314 301.874 123.11 301.613C123.722 303.885 126.509 313.231 127.582 314.769C129.368 314.96 132.614 314.942 133.925 315.259C130.925 315.225 129.253 315.08 126.363 315.95L125.837 316.546C126.922 318.536 128.426 318.66 130.683 319.382C130.939 320.814 132.344 321.79 133.406 322.737C130.927 324.213 128.716 324.98 125.828 325.193C125.115 322.701 123.497 320.256 122.079 318.114C122.082 314.638 120.489 305.29 117.473 303.604Z"/><path fill="#FBF167" d="M226.084 192.231C227.342 192.394 227.531 192.501 228.667 193.079C229.763 194.771 229.441 195.114 229.566 197.327C232.586 201.933 235.02 195.268 237.737 196.998C242.475 200.015 236.717 204.834 236.052 206.175C236.154 209.962 240.922 209.206 240.057 211.215C238.238 215.437 232.256 211.002 228.99 212.536C228.215 213.823 228.586 214.404 228.814 216.176L227.491 217.596C223.019 215.445 225.442 214.013 224.523 210.587C223.609 209.508 223.474 209.413 222.129 208.981C219.41 209.829 219.569 212.575 216.712 212.095C215.384 210.593 215.259 209.194 215.753 207.306C217.083 205.913 218.52 205.905 220.548 205.485C221.647 204.372 221.343 204.853 221.545 203.128C220.4 201.027 219.911 202.037 218.202 199.991C218.031 198.849 217.866 198.391 218.453 197.393C220.5 197.067 221.733 199.149 224.08 198.821C225.05 197.583 224.647 195.016 226.084 192.231Z"/><path fill="#FEFEFE" d="M130.923 430.016C131.206 429.989 131.592 429.931 131.866 429.965C142.406 431.245 130.536 440.873 130.423 442.289C131.979 443.084 132.462 442.74 134.412 442.621C135.763 443.402 135.632 443.907 136.44 445.622C137.714 446.078 137.178 446.083 138.451 445.594C138.662 444.756 138.814 444.217 139.116 443.408C140.641 443.137 140.824 443.159 142.241 443.782C144.332 446.224 141.418 449.36 139.739 451.646C127.541 465.158 122.662 446.061 122.948 436.304C123.038 433.231 128.438 431.243 130.923 430.016Z"/><path fill="#FBA2BE" d="M230.492 375.662C234.777 377.782 235.386 380.602 237.984 384.903C238.134 387.234 238.025 389.841 237.984 392.195L234.776 396.803C229.632 397.924 228.666 398.219 223.53 397.111C222.168 396.843 220.83 396.46 219.533 395.964C217.824 395.329 216.85 394.831 216.127 393.255C221.154 387.106 225.519 382.111 230.492 375.662Z"/><path fill="#FEFEFE" d="M302.779 436.086C308.249 435.317 315.684 437.114 314.549 444.484C314.123 447.25 313.296 446.487 311.323 447.803C311.157 448.645 311.072 450.618 310.868 451.155C308.812 456.58 301.65 456.661 297.764 455.578C294.048 452.379 293.548 450.465 292.681 445.877C295.814 446.647 296.947 446.45 298.622 448.981C301.11 449.033 300.273 446.511 304.228 447.289C304.598 444.581 297.161 440.492 302.779 436.086Z"/><path fill="#FEFEFE" d="M74.2632 431.991C88.3165 431.117 85.3955 435.927 87.6372 446.198C87.8573 447.207 90.2474 446.219 91.4284 447.57C91.0658 449.739 88.2869 451.571 86.5334 452.956C78.6885 457.808 75.9046 449.82 78.246 443.03C77.3847 440.323 68.0301 438.318 74.2632 431.991Z"/><path fill="#FBA2BE" d="M67.008 361.785C71.5407 361.596 79.3328 365.362 75.3741 370.811C74.3682 372.196 72.5469 372.544 71.5222 373.703C74.251 374.469 78.5488 375.641 78.3876 379.134C77.7156 380.828 77.4724 380.999 76.0655 382.185C71.9535 385.107 64.2954 386.01 65.0436 378.843C65.1544 377.782 67.0087 376.245 66.8352 375.525C65.3329 369.291 58.5947 366.52 67.008 361.785Z"/><path fill="#FEFEFE" d="M257.583 430.141L257.887 430.55C258.486 434.462 257.586 443.593 255.067 446.956C251.766 451.363 248.063 452.086 243.161 453.09C242.635 452.229 243.787 449.294 244.05 447.937C244.988 443.1 245.605 438.256 246.212 433.364C251.093 432.642 253.102 432.178 257.583 430.141Z"/><path fill="#FEFEFE" d="M264.716 396.476C269.608 396.227 274.004 399.325 271.077 404.516C268.181 409.652 265.357 410.589 260.257 412.326C258.227 412.331 256.428 411.057 254.728 410.025C250.025 400.781 256.468 397.99 264.716 396.476Z"/><path fill="#FEFEFE" d="M273.307 408.605C275.588 411.148 271.864 424.902 285.874 436.251C284.168 437.804 283.191 440.08 281.071 440.469L280.125 439.399C278.274 436.777 274.796 429.626 273.609 428.513C272.959 428.793 272.54 428.948 271.867 429.164C269.463 427.843 266.852 423.172 265.371 420.796C266.129 418.309 266.475 416.765 266.959 414.225C269.063 412.339 271.179 410.465 273.307 408.605Z"/><path fill="#FBA2BE" d="M89.1516 358.006C89.5885 358.229 91.0462 360.907 91.6541 361.799C91.989 362.28 96.3331 366.763 96.3327 366.782C96.2402 371.01 97.4373 371.587 100.375 374.941C99.6808 376.365 98.4361 378.327 97.6012 379.737C94.0045 381.211 93.5014 380.839 89.7445 379.876C88.94 379.578 87.8682 378.542 87.1716 377.944C86.136 376.019 86.9769 372.541 88.6593 371.086C89.9957 371.053 90.3538 370.998 91.6447 370.726L91.4854 370.034C89.2514 368.912 87.8853 369.775 87.676 369.543C86.2566 367.97 84.9993 367.018 83.0561 365.879C85.2493 363.108 86.7609 360.786 89.1516 358.006Z"/><path fill="#8ED18C" d="M105.625 306.927C106.852 306.822 107.333 306.677 108.475 307.155C109.743 309.456 108.432 316.161 108.589 320.094C104.543 320.116 100.002 320.254 96.0975 319.287L91.9365 317.64C92.9243 316.503 94.4544 314.893 95.0729 313.599L93.4486 311.074C93.2709 306.514 102.518 306.944 105.625 306.927Z"/><path fill="#EC61A4" d="M153.373 423.143C155.661 424.749 154.027 433.288 152.659 435.476C149.977 439.767 149.651 439.906 145.1 441.362C141.976 440.547 139.947 439.998 136.954 438.823C143.277 424.337 146.217 433.86 150.955 429.824L150.708 429.327L148.307 428.867L147.92 428.232C148.531 426.68 151.858 424.349 153.373 423.143Z"/><path fill="#FBA2BE" d="M169.466 375.567C171.795 376.428 175.962 382.615 177.982 384.163C180.173 385.842 183.592 386.759 186.215 388.634L186.043 389.442L184.332 390.454C177.02 393.157 175.653 393.232 169.21 388.977C167.899 382.666 168.137 381.92 169.466 375.567Z"/><path fill="#FBA2BE" d="M333.55 358.051C336.829 360.444 346.313 370.548 344.492 374.624L342.973 374.281C336.981 372.127 334.663 370.481 329.439 366.962C330.624 362.842 331.278 361.489 333.55 358.051Z"/><path fill="#FEFEFE" d="M336.737 355.594C342.627 355.028 359.883 359.556 361.078 365.966C358.405 366.022 356.808 366.096 354.217 365.536C349.932 364.61 338.544 360.188 336.296 356.364L336.737 355.594Z"/><path fill="#FDC8D6" d="M258.792 375.106C258.984 380.442 261.024 384.699 261.228 390.841C258.414 389.477 256.39 388.16 253.751 386.472C250.822 384.258 248.228 381.102 245.777 378.328C250.865 377.661 253.968 376.791 258.792 375.106Z"/><path fill="#FEFEFE" d="M351.07 435.042C359.629 434.068 360.66 444.665 349.566 446.393C348.275 447.027 348.726 447.995 346.661 448.682L345.666 448.1C344.744 446.198 345.512 443.196 346.127 441.259C347.305 437.547 347.762 436.828 351.07 435.042Z"/><path fill="#FDC8D6" d="M185.746 393.961L186.392 394.268C186.978 400.37 187.478 406.211 188.166 412.336C186.936 411.372 186.106 410.879 184.761 410.083C183.17 409.398 181.495 409.112 179.802 408.757C179.988 405.455 179.931 401.579 179.961 398.229C182.267 396.111 182.981 395.452 185.746 393.961Z"/><path fill="#FBA2BE" d="M356.077 369.162C358.348 368.922 359.652 368.276 360.972 370.199C361.201 372.166 359.95 374.877 359.231 376.833C357.462 377.027 355.314 377.045 353.506 377.108C350.941 377.087 348.233 376.941 346.838 374.522C347.478 370.633 352.98 369.85 356.077 369.162Z"/><path fill="#FEFEFE" d="M157.968 390.859C165.581 390.755 169.392 397.155 167.095 404.189C166.838 404.293 161.248 403.035 160.196 402.913C159.872 397.96 159.384 395.596 157.968 390.859Z"/><path fill="#FEFEFE" d="M101.545 440.849L102.171 439.879C109.413 438.871 109.754 444.649 110.523 450.606C106.299 450.258 103.455 448.263 100.049 445.93L101.545 440.849Z"/><path fill="#FDC8D6" d="M171.371 395.889C172.786 395.965 174.782 395.883 175.829 396.735C177.237 400.262 176.858 408.548 173.739 411.321C167.553 409.454 171.453 404.766 171.954 400.461C172.098 399.223 171.63 397.119 171.371 395.889Z"/><path fill="#EC61A4" d="M116.633 438.915C117.866 438.816 118.111 438.781 119.306 439.07C120.555 440.534 121.045 443.434 121.696 445.552C119.067 446.36 117.295 446.747 114.598 447.273L113.589 446.875C111.529 444.454 111.174 442.168 110.538 439.138L116.633 438.915Z"/><path fill="#FBA2BE" d="M81.3687 368.068L82.0755 368.064C86.7162 370.334 87.0631 373.191 82.9178 376.34C82.5994 376.323 82.2814 376.298 81.9641 376.267C75.3237 375.583 77.3275 370.982 81.3687 368.068Z"/><path fill="#EC61A4" d="M89.7642 438.76L98.4664 439.122C98.0063 441.286 97.3017 443.677 96.7199 445.833L96.3064 446.249C93.1095 446.551 90.0338 441.84 89.7642 438.76Z"/><path fill="#FEFEFE" d="M194.41 398.787C196.268 398.068 198.36 398.97 199.114 400.815C199.868 402.66 199.006 404.769 197.176 405.558C195.961 406.082 194.557 405.908 193.506 405.104C192.455 404.3 191.92 402.991 192.107 401.681C192.295 400.37 193.175 399.264 194.41 398.787Z"/><path fill="#EC61A4" d="M241.603 282.128C242.94 282.056 243.868 282.508 244.742 283.422C244.76 285.403 241.936 288.775 240.676 290.52L240.197 290.973C238.159 290.413 237.713 287.555 238.109 285.744C238.558 283.69 239.968 283.148 241.603 282.128Z"/><path fill="#FBA2BE" d="M286.737 438.612C288.478 438.28 290.173 439.376 290.585 441.101C290.996 442.826 289.978 444.569 288.274 445.059C287.1 445.396 285.837 445.061 284.984 444.187C284.131 443.313 283.828 442.041 284.194 440.876C284.56 439.711 285.537 438.841 286.737 438.612Z"/><path fill="#FBA2BE" d="M346.922 449.906C351.178 449.98 353.176 453.472 350.259 456.241C349.305 456.271 348.314 456.21 347.357 456.171C345.868 455.154 346.301 455.713 345.67 454.09C345.851 452.005 345.932 451.751 346.922 449.906Z"/><path fill="#EC61A4" d="M268.688 301.404C269.983 301.646 270.148 301.683 271.049 302.633C272.178 305.891 270.727 306.81 268.095 308.139C266.985 307.625 266.831 307.557 266.116 306.574C266.041 305.375 267.874 303.046 268.688 301.404Z"/><path fill="#485764" d="M336.52 445.147C339.093 444.864 343.011 445.146 342.417 448.782L341.144 449.004C339.445 448.463 334.597 447.121 333.553 446.038C334.357 445.163 335.066 445.354 336.52 445.147Z"/><path fill="#FEFEFE" d="M130.683 319.382C134.198 319.807 136.625 319.978 140.165 320.067C137.639 321.217 136.042 321.867 133.406 322.737C132.344 321.79 130.939 320.814 130.683 319.382Z"/><path fill="#FBA2BE" d="M343.529 365.244C345.251 365.5 348.922 366.628 350.425 367.468L349.679 367.707C348.603 368.463 348.13 368.821 346.89 369.365C345.181 368.576 344.67 367.055 343.529 365.244Z"/><path fill="#FDC8D6" d="M26.2093 0L396.973 0C394.633 4.57937 393.392 10.4714 389.705 14.6622C383.276 21.9806 378.049 32.6399 369.909 38.1185C282.453 96.9865 173.092 90.8644 81.4838 45.1589C74.9255 41.8868 65.12 37.2334 59.7268 32.6312C49.9571 24.2944 33.3468 10.1357 26.2093 0Z"/><path fill="#561D12" d="M21.8024 0L26.2093 0C33.3468 10.1357 49.9571 24.2944 59.7268 32.6312C65.12 37.2334 74.9255 41.8868 81.4838 45.1589C173.092 90.8644 282.453 96.9865 369.909 38.1185C378.049 32.6399 383.276 21.9806 389.705 14.6622C393.392 10.4714 394.633 4.57937 396.973 0L401.279 0C398.551 11.5032 388.168 26.5571 380.135 35.3031C378.612 36.9617 372.182 40.5517 370.923 42.1729C375.342 42.8082 374.241 42.0056 378.799 44.4535C380.713 50.4606 378.544 53.6927 378.776 59.7645C378.963 64.6765 386.083 73.3412 378.065 76.1637C373.201 77.8757 372.42 74.6659 369.725 74.1671C369.783 78.2055 370.332 77.5296 367.99 80.9348C364.348 86.229 356.484 79.1955 353.658 83.2582C352.453 84.9903 352.799 86.8058 349.827 90.0092C346.056 90.0934 344.812 90.1671 341.166 88.8422C338.396 94.684 335.052 97.5007 329.043 99.5872C323.949 101.356 321.814 101.59 317.356 99.0371C309.374 117.337 303.454 98.6821 301.607 97.9588C300.911 99.4028 303.765 108.477 297.727 109.799C285.65 112.444 289.28 96.274 284.851 92.5385C283.092 92.1185 282.787 92.4959 280.825 93.3425C281.926 99.5149 286.465 113.227 276.968 114.054C267.995 114.836 270.521 98.2976 266.464 95.8701C264.682 96.9037 263.998 100.305 263.477 102.261L263.329 102.822C264.595 104.967 266.264 107.377 267.285 109.541C259.967 121.067 258.684 114.639 254.049 113.211C251.478 112.418 250.362 121.472 241.836 115.2L240.467 112.405C235.079 119.982 230.598 121.65 226.511 111.501C221.63 119.731 214.552 118.104 206.135 117.896C198.155 112.378 201.661 106.149 200.87 97.2413C200.449 92.5002 201.174 84.7194 207.664 85.2078L208.916 84.1554C205.901 84.111 189.013 81.8611 187.901 82.5072C189.742 84.4237 192.338 86.573 192.273 89.354C192.181 93.2487 185.124 99.1063 182.201 101.852C181.978 107.093 180.827 115.971 172.787 113.428C166.292 111.374 169.15 104.801 169.039 100.051C169.001 98.4369 167.042 94.4819 166.289 92.4964C166.068 92.9645 165.834 93.4264 165.588 93.8815C161.066 102.181 159.252 100.264 151.81 102.199C148.558 103.045 150.105 105.691 143.572 107.281C142.457 106.721 140.988 106.135 139.817 105.629C138.717 104.172 137.644 102.695 136.597 101.199C137.183 98.6933 138.623 95.0275 139.535 92.504C134.917 96.0487 132.584 96.0097 127.052 96.0295C120.441 104.584 118.334 97.4061 109.751 96.7457C109.283 96.7096 106.99 95.5053 106.431 95.2151C104.796 90.8371 104.582 87.726 99.106 89.3935C95.9941 90.1744 92.3259 90.8192 90.1836 87.8332C88.3119 85.2243 81.6126 85.8733 80.0255 82.8831C78.7931 80.5611 81.1887 72.8271 81.8108 70.4243C77.7354 77.5017 74.9183 82.2556 67.2473 76.1218L65.9163 72.2211C67.5357 66.3103 75.1364 52.541 79.3866 48.1677C71.3394 43.7695 61.9726 40.2038 54.0274 35.0105C52.4064 33.951 49.9906 29.1785 48.1178 27.3389C40.8108 20.1615 26.6363 8.81705 21.8024 0Z"/><path fill="#FDC8D6" d="M220.644 84.7667C223.374 85.2475 227.145 85.0807 230.004 85.0481C226.905 87.2733 227.219 87.467 225.407 90.8014C223.251 87.2424 222.482 86.2069 218.294 85.5644L220.644 84.7667Z"/><path fill="#561D12" d="M208.916 84.1554C211.517 84.107 218.196 84.0808 220.644 84.7667L218.294 85.5644C215.502 84.8105 210.544 85.0477 207.664 85.2078L208.916 84.1554Z"/><path fill="#FBA2BE" d="M322.785 70.1303C326.463 69.8283 328.647 69.798 332.034 71.5066C335.093 73.0245 337.395 75.7315 338.402 78.9949C339.489 82.5195 339.12 86.3323 337.378 89.5832C335.041 93.9591 331.913 95.2731 327.533 96.6054C325.367 97.771 323.338 98.6219 320.871 97.9594C317.825 95.7227 312.797 79.0278 313.147 74.6666C313.266 73.1742 321.059 70.8293 322.785 70.1303Z"/><path fill="#561D12" d="M321.571 77.0639C329.521 76.5103 330.232 77.0937 332.261 84.631L329.496 88.6563L324.559 90.463C323.788 87.1525 320.068 79.4687 321.571 77.0639Z"/><path fill="#FDC8D6" d="M324.561 80.0128C326.82 79.9227 327.271 79.8664 328.648 81.8007C329.108 83.5997 329.117 83.8255 328.617 85.6116L327.192 85.7618C326.238 84.992 325.206 81.5179 324.561 80.0128Z"/><path fill="#FBA2BE" d="M206.493 87.9492C213.104 87.8049 215.061 87.4152 221.367 89.502C222.424 91.5018 223.077 93.3413 223.87 95.4427C223.773 95.6984 223.678 95.9545 223.584 96.2111C221.573 101.702 223.799 101.746 224.85 107.341C223.941 109.989 223.95 110.745 221.91 112.646C211.473 118.77 201.69 115.797 203.68 102.517C204.414 97.6252 202.139 91.6373 206.493 87.9492Z"/><path fill="#571917" d="M211.207 103.021C212.797 102.971 213.947 102.847 215.375 103.546L215.58 103.648C217.14 104.413 217.483 104.608 218.341 106.122C217.985 107.264 218.241 106.857 217.367 107.674C215.08 108.244 213.374 109.102 211.35 107.68C210.707 106.111 211.018 104.71 211.207 103.021Z"/><path fill="#571917" d="M211.054 94.0275C212.995 94.1084 214.278 94.0796 216.015 94.9243C217.264 96.3577 216.987 95.6792 216.927 97.722C214.91 98.5199 213.621 99.1571 211.652 98.3894C210.75 97.269 211.014 95.5361 211.054 94.0275Z"/><path fill="#FBF167" d="M245.229 86.9987C248.474 86.878 251.78 86.969 255.032 87.0221C262.693 91.708 263.908 97.8807 257.173 103.893C257.835 104.184 258.49 104.49 259.139 104.811C261.534 106.005 262.198 106.972 263.056 109.512C262.638 112.339 261.161 112.631 258.468 112.338C256.835 110.903 252.851 108.381 250.777 107.681L250.359 107.919C250.287 109.173 250.269 110.282 250.262 111.534C248.979 113.499 247.261 114.418 245.098 113.114C242.337 109.131 241.733 94.7617 241.512 89.3458L245.229 86.9987Z"/><path fill="#561D12" d="M248.05 92.984C253.013 92.8171 257.381 93.4587 254.43 99.7542C252.5 99.9584 250.618 100.374 248.716 100.758C248.215 97.599 248.06 96.1749 248.05 92.984Z"/><path fill="#FBF167" d="M303.583 76.8813C304.944 76.8259 305.524 76.7196 306.808 77.2744C309.182 80.4203 312.286 93.5222 312.975 97.9548C313.23 99.5955 312.812 101.258 311.651 102.577C310.028 103.272 310.723 103.18 309.013 102.979C306.272 101.336 305.695 97.5062 304.707 94.2678C302.087 94.759 299.476 95.2998 296.876 95.8901C298.088 100.213 300.063 103.726 296.393 107.059C295.36 106.972 294.482 106.899 293.71 106.14C290.873 103.354 287.219 86.8166 287.181 83.575C287.998 81.3859 289.677 80.1562 291.979 80.9525C294.258 83.1105 294.621 86.5623 295.288 89.6374C297.857 89.1359 300.722 88.8863 302.523 87.0171C304.099 83.4974 299.5 82.4227 303.583 76.8813Z"/><path fill="#67D5F0" d="M81.1069 51.3105C82.7006 51.4018 84.1673 51.8087 85.3561 52.8907C86.3695 55.7959 84.015 58.4859 82.4899 62.0599C85.5548 63.5592 86.5944 64.145 89.3169 66.1861C91.0676 62.5463 92.5637 57.5533 97.3205 59.2701C98.0134 60.0713 98.7213 60.7412 98.5078 61.9832C97.7451 66.4195 89.8096 80.4301 86.9397 82.9856C79.4627 81.3897 84.0485 75.6775 86.5091 71.5552C83.8433 70.2042 81.4499 69.0064 78.8983 67.4455C77.9747 69.5853 75.76 76.2166 72.7135 75.6661C64.7627 74.2295 75.4247 61.3315 76.6639 57.6411C77.2911 55.7735 79.7189 52.426 81.1069 51.3105Z"/><path fill="#FBA2BE" d="M124.253 71.9801C147.51 71.615 142.821 97.2822 126.598 92.2255L125.576 91.9764C122.814 92.8584 123.703 97.9363 120.137 97.656C119.402 97.0579 116.998 95.3269 117.028 94.7727C117.253 90.6228 122.317 74.6727 124.253 71.9801Z"/><path fill="#571917" d="M129.364 79.3521C133.241 80.6124 134.681 83.2158 131.333 86.2261C129.468 86.0706 128.541 86.1542 127.302 84.9579C127.011 83.3737 128.57 80.9213 129.364 79.3521Z"/><path fill="#67D5F0" d="M147.494 77.6492C152.357 78.5901 157.882 79.195 161.114 83.3415C162.671 85.3447 163.347 87.8948 162.987 90.4064C162.651 93.0167 161.273 95.3798 159.167 96.9575C156.98 98.5852 154.948 98.9179 152.326 98.5115C146.016 97.5708 148.713 100.039 145.225 103.328C143.965 103.782 143.404 103.449 142.164 103.007C139.163 99.643 144.635 81.0077 147.494 77.6492Z"/><path fill="#552407" d="M151.538 85.3098C154.08 85.9093 155.039 85.7955 156.225 88.1655C156.244 89.9215 156.006 90.3377 155.305 91.9621C152.851 92.02 151.262 92.62 150.097 90.2738C150.132 88.5426 150.899 86.9304 151.538 85.3098Z"/><path fill="#67D5F0" d="M344.47 59.1901C345.3 59.098 347.361 58.8431 347.929 59.4147C351.247 62.7501 369.599 74.2918 365.244 79.2325C361.987 80.5996 360.432 79.6065 358.397 77.099C355.944 78.9738 353.16 79.7365 350.266 80.6604C349.528 89.8719 344.241 88.6358 343.115 83.0311C342.332 79.1307 342.364 61.9843 344.47 59.1901Z"/><path fill="#561D12" d="M349.106 68.0606C350.82 69.3903 352.916 70.8571 353.792 72.8191L353.265 73.9109L349.116 75.617C349.064 73.1422 349.104 70.5468 349.106 68.0606Z"/><path fill="#FBF167" d="M109.859 65.4464C111.641 65.6312 112.582 65.9195 113.686 67.1815C113.974 68.3894 114.312 70.8105 114.205 72.0131C113.792 76.6658 116.742 91.2806 112.413 93.7668C107.882 94.0358 108.777 91.3425 107.694 87.86C106.654 86.7835 103.596 85.9485 102.039 85.4124C98.6579 84.1523 97.8595 85.4779 94.9408 87.3682C93.2573 86.1969 91.2741 85.3264 91.401 83.125C93.4085 79.5718 106.218 67.9245 109.859 65.4464Z"/><path fill="#552407" d="M107.967 74.9551C108.151 75.0196 108.553 75.4041 108.73 75.557C108.972 77.6339 109.324 79.7353 108.463 81.6488L107.657 81.8844L106.322 81.0882C104.624 80.3092 104.356 80.5549 103.726 79.2396C104.055 77.6996 106.606 76.0431 107.967 74.9551Z"/><path fill="#FBA2BE" d="M280.034 82.9194C280.913 83.1221 283.68 83.6529 283.894 84.6945C285.049 90.302 281.126 89.4656 277.715 90.2987C276.345 93.2542 281.718 104.947 280 108.395C277.739 112.928 274.478 110.987 272.786 107.369C271.78 103.277 271.567 95.2486 270.351 92.504C267.099 92.1204 264.161 93.2233 262.067 90.6471C261.769 89.11 261.776 88.9239 262.478 87.5309C263.857 85.9067 276.242 84.0578 280.034 82.9194Z"/><path fill="#FBF167" d="M169.816 82.6894L170.18 82.7419C174.501 83.3367 175.938 89.2151 177.357 92.8431C179.404 89.9084 184.407 83.8916 188.321 86.2437C190.491 90.7053 182.976 96.7961 180.024 99.5967C177.711 102.369 180.711 110.638 174.368 110.567C170.067 109.015 172.197 102.52 172.76 98.9589C170.778 94.491 168.672 90.2971 166.696 85.7084L169.816 82.6894Z"/><path fill="#FBF167" d="M372.551 45.5042C374.088 45.8238 375.777 46.0011 376.262 47.7081C377.08 50.592 375.552 58.3608 374.487 60.8371C376.429 63.9291 383.298 74.6691 373.92 73.078C372.409 72.1031 369.813 66.6285 368.832 64.78C366.295 62.3986 353.565 58.3648 356.381 53.7422C361.171 50.7256 364.61 54.0863 368.735 56.9485C369.022 52.7149 368.371 47.3446 372.551 45.5042Z"/><path fill="#67D5F0" d="M231.393 87.8338C234.173 88.5097 234.814 88.3625 235.919 91.044C236.28 96.7983 236.118 102.759 236.53 108.533C236.744 111.52 236.738 114.097 233.569 115.367C228.41 113.51 229.191 96.7183 228.994 92.0015C228.907 89.9051 229.924 89.0849 231.393 87.8338Z"/><path fill="#FDC8D6" d="M339.349 59.5486C340.498 60.7821 339.945 72.0735 339.916 74.5237C336.288 70.5852 335.451 69.5599 330.617 67.3252C328.749 66.8699 325.23 66.9478 323.187 66.9198C327.865 64.2086 334.165 62.041 339.349 59.5486Z"/><path fill="#FDC8D6" d="M116.236 63.7574C118.3 64.0839 127.241 67.706 130.093 68.6398C126.556 68.7747 124.178 68.559 121.19 70.5193C119.816 73.6627 118.922 77.4046 118.025 80.7501C117.852 74.1953 116.645 69.5602 116.236 63.7574Z"/><path fill="#FDC8D6" d="M101.474 58.6761C102.593 58.9503 103.709 59.232 104.824 59.5213C106.373 59.927 108.069 60.2076 108.858 61.558C108.471 62.3078 104.077 65.583 102.588 67.0257L98.4562 70.9856C100.445 66.987 103.163 63.0977 101.474 58.6761Z"/><path fill="#FDC8D6" d="M300.755 74.8158C300.673 76.1129 298.235 78.811 298.069 79.833C297.809 81.4317 299.491 83.9423 298.82 85.7242L298.136 85.8982C297.214 85.0066 297.077 83.7763 296.79 82.519C296.601 80.3897 293.47 78.0808 291.804 76.5918C294.889 75.902 297.638 75.3334 300.755 74.8158Z"/><path fill="#FDC8D6" d="M134.369 70.1229C136.221 70.5348 147.586 73.7695 148.353 74.5686L147.306 74.8705C145.271 75.7096 144.56 76.2466 142.738 77.524C139.309 73.1339 138.865 73.4511 134.369 70.1229Z"/><path fill="#571917" d="M231.393 87.8338C234.383 85.9725 235.624 83.3995 240.206 85.289L240.312 86.1096C238.973 87.7233 236.69 89.6496 235.919 91.044C234.814 88.3625 234.173 88.5097 231.393 87.8338Z"/><path fill="#FDC8D6" d="M173.524 79.9994C175.746 79.9052 182.437 80.7437 183.881 82.4081L182.548 83.2258L178.487 86.3426C176.664 83.5196 175.951 82.2974 173.524 79.9994Z"/><path fill="#FDC8D6" d="M356.838 61.868C359.072 62.3012 364.381 65.5689 366.363 66.8022C367.093 68.6187 368.18 70.7345 369.043 72.5278C367.087 71.6248 359.09 63.8821 356.838 61.868Z"/><path fill="#FDC8D6" d="M367.174 44.1259L367.572 44.5395C367.102 46.8564 366.927 49.5501 364.751 50.7866L362.925 49.9816C362.12 49.6088 361.464 49.2502 360.689 48.8188L360.62 48.0719C361.755 46.5641 364.554 46.1568 366.856 44.3762L367.174 44.1259Z"/><path fill="#FDC8D6" d="M159.388 76.9615C161.345 76.8384 168.303 78.1716 169.193 79.7702L167.449 80.3513C166.481 81.8941 166.79 81.9943 165.439 82.3931C163.467 81.5992 161.137 78.7024 159.388 76.9615Z"/><path fill="#FDC8D6" d="M88.8881 52.774C90.4787 53.2453 92.12 53.6098 93.4248 54.6248C93.0397 56.0951 91.14 55.9654 89.22 59.3259L89.1173 59.5085C88.3676 60.7802 87.166 62.2146 86.2319 63.399C87.1862 60.2783 88.7093 55.9073 88.8881 52.774Z"/><path fill="#FDC8D6" d="M265.831 82.3089C266.455 82.1124 266.155 82.0973 266.759 82.3664C261.947 83.1387 261.06 86.5877 256.758 85.225C255.735 84.9387 255.675 84.8581 254.802 84.2203L255.078 83.5738C257.416 82.7289 263.217 82.3156 265.831 82.3089Z"/><path fill="#FDC8D6" d="M352.581 52.7983C353.168 53.3585 353.873 57.7228 352.996 58.6326L351.509 57.4107C350.387 56.6122 348.607 55.8558 347.318 55.255L352.581 52.7983Z"/><path fill="#FDC8D6" d="M311.089 71.1186C311.138 72.2858 310.609 73.6145 309.801 74.4525C308.199 75.0446 306.524 74.2419 304.868 73.6845L304.089 73.8424C304.905 73.0499 309.684 71.5946 311.089 71.1186Z"/><path fill="#FDC8D6" d="M286.666 77.9606L286.923 78.5142L284.309 80.5441C283.219 80.3366 282.269 80.0307 281.214 79.7109L280.5 79.8856L280.291 79.4933C282.564 79.017 284.418 78.6054 286.666 77.9606Z"/><path fill="#485764" d="M376.995 335.645C377.985 334.728 379.418 334.472 380.664 334.989C381.91 335.506 382.741 336.702 382.79 338.05C382.827 339.035 382.44 339.989 381.728 340.671C381.016 341.353 380.046 341.697 379.063 341.618C377.698 341.508 376.527 340.601 376.079 339.307C375.631 338.012 375.991 336.576 376.995 335.645Z"/><path fill="#561D12" d="M375.245 334.156C381.224 329.201 386.467 335.656 384.22 340.876C382.653 339.806 382.905 339.703 382.79 338.05C382.741 336.702 381.91 335.506 380.664 334.989C379.418 334.472 377.985 334.728 376.995 335.645L375.245 334.156Z"/><path fill="#571917" d="M382.79 338.05C382.905 339.703 382.653 339.806 384.22 340.876C383.17 343.397 381.707 343.984 379.034 344.208L379.063 341.618C380.046 341.697 381.016 341.353 381.728 340.671C382.44 339.989 382.827 339.035 382.79 338.05Z"/><path fill="#561D12" d="M169.415 120.242C176.729 119.598 184.92 119.65 190.33 125.574C194.501 130.141 194.13 134.742 193.891 140.452C183.622 156.232 174.818 162.517 158.59 171.248C161.983 178.589 162.802 180.129 163.063 188.196C164.842 190.536 165.495 191.88 166.826 194.481L165.711 199.166C162.901 200.656 160.524 201.426 157.428 201.981C155.714 201.249 150.919 199.199 149.409 199.503C141.21 201.157 133.82 202.723 125.335 202.935C120.441 203.057 115.521 203.754 110.597 203.91C108.983 207.296 107.678 208.891 105.32 211.708C97.6535 214.809 93.2223 210.58 92.7878 202.91C92.252 202.454 90.5435 201.097 90.0116 200.818C81.726 196.464 82.7877 190.039 83.1131 182.167C78.7402 182.004 72.1425 180.172 67.5714 179.177C55.9321 176.292 40.1876 169.97 33.2165 159.457C28.8958 152.539 30.0689 142.188 35.7269 136.434C49.3538 122.576 62.7798 137.967 72.4948 147.124C73.8663 140.186 75.5087 140.756 81.9649 141.08L86.29 143.81C91.3205 141.656 95.5834 141.648 99.4085 140.201C110.015 136.187 110.342 135.41 121.914 138.284C131.011 130.466 134.43 139.927 140.229 145.61C141.074 146.438 143.822 147.228 145.054 147.598C158.202 135.459 152.394 130.443 169.415 120.242Z"/><path fill="#FEFEFE" d="M160.541 129.925C165.886 125.408 170.261 122.11 177.643 122.866C188.227 123.949 191.128 129.47 191.097 139.009C182.786 152.141 170.809 162.549 156.646 168.945C155.497 167.645 153.307 165.364 151.522 165.231C151.558 167.907 157.127 174.896 158.34 177.907C159.262 180.196 159.627 181.372 160.094 183.923C160.101 186.443 160.045 190.219 157.678 191.799C145.843 200.438 107.846 203.119 93.8403 199.534L92.6431 199.136C83.7492 195.356 85.1711 186.383 87.2593 178.748C86.791 177.24 86.8744 177.662 85.3036 176.574C85.0087 177.116 83.8162 179.666 83.3159 179.629C72.2995 178.744 59.3222 174.54 49.5548 169.328C39.1911 163.798 28.6584 153.316 36.2674 140.988C44.8533 127.077 58.5541 137.259 66.8102 145.225C75.1764 153.297 82.6989 158.737 94.1055 161.44C93.6882 162.751 93.0532 164.108 93.5436 165.346C95.5818 165.515 99.2372 160.286 100.976 159.317C103.389 157.972 112.256 153.734 114.744 154.786L114.699 155.124C114.596 155.911 114.376 158.163 115.031 158.618C119.491 161.717 127.014 163.478 132.346 163.844C148.093 164.925 146.075 162.869 147.713 149.76C153.308 143.516 157.913 137.977 160.541 129.925Z"/><path fill="#EC61A4" d="M92.6431 199.136C91.993 197.325 90.2977 196.063 91.3558 194.078C93.2759 190.476 100.683 191.382 102.052 195.133C101.243 200.839 95.7639 198.368 93.8403 199.534L92.6431 199.136Z"/><path fill="#EC61A4" d="M160.094 183.923C160.101 186.443 160.045 190.219 157.678 191.799L157.308 191.829C154.656 192.022 152.539 192.273 150.313 190.337C148.026 184.722 155.283 183.681 159.596 185.224L160.094 183.923Z"/><path fill="#571917" d="M85.3036 176.574C86.0906 175.203 86.8062 173.565 88.1947 172.907C89.6063 174.117 87.8904 177.236 87.2593 178.748C86.791 177.24 86.8744 177.662 85.3036 176.574Z"/><path fill="#67D5F0" d="M100.779 177.749C105.477 178.199 105.761 183.562 104.952 187.1C104.41 189.469 104.096 189.578 102.228 191.276C96.3023 190.698 96.4923 181.481 100.779 177.749Z"/><path fill="#67D5F0" d="M143.58 175.926C145.952 175.773 147.352 177.77 148.856 179.372C149.277 183.422 149.455 184.227 146.453 187.058C141.311 187.391 138.727 180.259 143.58 175.926Z"/><path fill="#552407" d="M119.61 187.442C120.083 189.012 118.154 189.325 119.757 191.63C122.045 191.815 122.996 190.106 124.637 190.104C126.232 190.102 128.568 190.405 130.401 190.451C131.938 189.182 130.345 189.217 131.524 187.621C132.605 188.081 132.89 189.008 133.64 190.179C133.071 191.403 132.984 191.54 131.793 192.162C128.361 192.283 117.768 194.352 116.984 190.416C117.383 188.858 118.297 188.403 119.61 187.442Z"/><path fill="#FEFEFE" d="M109.922 138.88C115.27 138.675 119.923 140.555 124.371 143.291C118.692 144.746 117.647 145.329 115.981 150.781C109.232 152.731 105.364 153.646 99.0624 157.004C96.5511 153.112 95.3575 151.965 96.8313 147.269C98.2649 145.349 99.2635 144.839 101.252 143.598C102.082 145.202 103.414 147.266 104.372 148.855C107.235 149.026 110.076 148.947 112.944 148.91C115.361 147.287 119.146 144.65 115.608 141.573C113.58 142.199 112.558 145.792 110.106 146.77C107.795 147.691 104.978 145.559 104.176 143.496C104.853 140.264 107.078 139.691 109.922 138.88Z"/><path fill="#FEFEFE" d="M75.9752 143.792C77.9442 143.661 80.7894 143.418 81.9311 145.154C81.4125 146.744 78.6245 149.239 77.2443 150.744C84.6793 148.24 86.3982 145.297 95.895 143.486C94.7072 145.742 94.1303 146.918 93.2291 149.33C92.9767 154.448 94.1862 155.846 97.1973 159.652C91.711 158.315 77.7456 153.312 75.1535 148.352C74.8091 146.712 75.4331 145.38 75.9752 143.792Z"/><path fill="#FBA2BE" d="M119.199 149.598C122.497 150.927 131.815 156.837 130.895 160.84L129.616 161.129C123.714 160.249 121.656 160.162 116.567 157.312C117.332 154.112 117.817 152.549 119.199 149.598Z"/><path fill="#FEFEFE" d="M123.091 146.17C129.899 145.656 138.191 145.593 143.82 150.246L143.696 150.776L142.536 151.049C138.95 151.333 121.97 151.188 121.559 146.919L123.091 146.17Z"/><path fill="#FBA2BE" d="M141.307 153.918C143.572 153.853 143.389 153.47 144.705 154.609C145.69 157.128 145.022 158.275 143.282 160.256C141.366 162.438 139.22 162.113 136.545 162.118C134.344 162.01 133.388 161.581 133.303 159.413C134.737 156.704 138.594 155.194 141.307 153.918Z"/><path fill="#FEFEFE" d="M95.6705 202.976C98.4303 202.898 104.883 202.636 106.798 204.512C106.85 206.057 106.462 206.045 105.407 207.619C100.733 212.043 96.686 208.433 95.6705 202.976Z"/><path fill="#FEFEFE" d="M161.74 190.984C166.556 194.55 161.864 199.481 155.705 198.797L153.574 197.866L153.468 197.376C156.607 196.14 159.184 193.316 161.74 190.984Z"/><path fill="#FEFEFE" d="M125.153 138.008C128.649 137.594 134.512 139.463 133.967 143.6C131.37 143.358 126.678 140.954 124.939 139.098L125.153 138.008Z"/><path fill="#561D12" d="M315.946 460.096L317.03 460.731C316.143 462.778 312.123 462.581 310.774 460.347L311.111 460.13L315.946 460.096Z"/></svg>