<?xml version="1.0" encoding="utf-8" ?><svg xmlns="http://www.w3.org/2000/svg" xmlns:xlink="http://www.w3.org/1999/xlink" width="39" height="77" viewBox="0 0 39 77"><path fill="#71CDF1" d="M0 9.70464C1.77163 8.46608 6.05751 5.72602 8.1508 5.82097C8.83465 6.16332 9.18519 6.31129 9.44079 7.18167C10.6605 11.335 10.6013 12.6715 13.6304 15.7925C16.8038 14.3725 20.536 13.5203 23.9048 14.8066C25.9262 15.5581 27.5649 17.0841 28.4583 19.0469C29.3101 20.9535 29.4828 23.4009 28.7294 25.3648C28.114 26.9647 26.8872 28.254 25.3197 28.9479C23.241 29.8729 18.9518 29.8781 16.5135 29.9736C16.9988 32.6297 16.9895 34.5219 17.3207 37.036C21.9036 36.6015 26.423 35.9834 30.2354 38.9662C33.4387 41.4725 34.4181 47.7633 31.5133 50.6739C23.883 58.3193 19.1547 51.6269 14.5429 46.5237C16.7166 51.3696 17.6686 56.9511 23.1573 58.9077C26.3458 60.0443 27.9773 58.9255 31.956 60.2586C32.8839 65.1947 32.0714 67.0247 32.5078 71.0834C25.1853 70.8722 19.275 70.2855 13.8053 64.6526C8.48748 59.1761 7.77925 49.8268 11.7099 43.4463C8.65944 40.0543 6.46884 36.6677 6.7213 31.886C6.88704 29.0991 7.72861 26.3944 9.17334 24.0054C5.61229 22.2343 1.9735 19.237 0 15.7786L0 9.70464ZM19.3023 43.0834C20.6395 44.7172 21.4189 45.8754 23.2819 46.9242C24.7321 47.3913 26.3998 47.6641 26.9822 45.7783C27.1644 45.1828 27.1068 44.5397 26.8215 43.9861C26.0318 42.4868 25.3289 42.7055 23.8896 42.9007C22.3611 42.9755 20.8319 43.0364 19.3023 43.0834ZM20.0625 24.7783C21.6893 24.4305 23.2456 24.2671 23.3622 22.2643C22.7654 21.1264 21.483 20.4708 20.199 20.5141C18.8831 21.038 17.716 21.4615 17.0097 22.7652C16.9206 23.6426 16.8379 23.3523 17.3327 24.0512C18.0189 24.4741 19.276 24.7505 20.0625 24.7783Z"/></svg>