<?xml version="1.0" encoding="utf-8" ?><svg xmlns="http://www.w3.org/2000/svg" xmlns:xlink="http://www.w3.org/1999/xlink" width="44" height="44" viewBox="0 0 44 44"><path fill="#F595B9" d="M34.0537 6.61291C34.5868 6.70933 35.037 6.96928 35.4979 7.17879C41.8118 10.0488 45.7971 13.4427 37.9806 18.2666C33.4467 21.0646 29.5684 22.0605 24.3476 22.3757C22.4445 31.2404 13.6875 37.9797 5.14336 39.2194C2.60924 39.587 2.54541 35.2924 2.40103 33.6871C1.3965 26.3089 4.23647 29.1825 9.4819 28.5394C13.0396 28.1032 14.7225 25.7786 16.7626 23.0886C16.389 22.8681 16.035 22.616 15.7043 22.3351C12.127 19.3164 8.23244 14.4106 12.1656 10.1481C13.8936 8.27533 15.2277 7.50266 17.7894 7.21356C24.9114 6.40981 24.3321 13.5746 25.9855 14.9878C26.1189 14.9821 26.2517 14.9673 26.3831 14.9435C29.3156 14.4092 32.3691 9.0729 34.0537 6.61291ZM20.6855 18.2786C21.3956 16.372 21.1041 15.7996 20.4954 13.8413C19.0662 12.9545 18.5374 12.4838 16.8624 12.3367C16.0224 15.9513 16.2616 18.4571 20.6855 18.2786Z"/></svg>