<?xml version="1.0" encoding="utf-8" ?><svg xmlns="http://www.w3.org/2000/svg" xmlns:xlink="http://www.w3.org/1999/xlink" width="54" height="49" viewBox="0 0 54 49"><path fill="#FCE87A" d="M36.1861 11.1023C36.2883 11.0799 36.3915 11.0622 36.4953 11.0493C39.0504 10.7396 47.2684 11.4567 49.2771 12.9816C52.7935 15.651 47.2716 23.2019 45.1545 25.8714C43.5949 24.8243 41.9149 23.8294 40.4 22.7168C37.1816 20.3528 35.6318 20.1088 31.741 20.6311C33.1122 25.7851 33.0414 31.7063 27.4903 34.5454C24.4269 36.1121 21.9408 35.4312 18.8291 34.3684C14.2954 32.8143 15.1205 26.6416 15.2056 22.9133C13.1292 23.7498 7.01166 23.9952 4.63909 23.9316C3.33795 21.4105 0.352024 17.9326 2.3962 15.0694C5.14909 11.2137 13.613 11.9047 17.6506 12.9722C18.3938 13.1687 20.9096 14.9292 21.6544 15.4353C25.9331 13.1171 31.3567 11.6044 36.1861 11.1023Z"/></svg>