<?xml version="1.0" encoding="utf-8" ?><svg xmlns="http://www.w3.org/2000/svg" xmlns:xlink="http://www.w3.org/1999/xlink" width="32" height="48" viewBox="0 0 32 48"><path fill="#FCE879" d="M19.3612 3.24416C21.6103 3.3411 28.4282 3.86457 30.0664 5.1289C32.2794 6.8368 28.9389 13.8133 27.7277 15.8207C25.4471 19.6007 21.7577 22.0046 18.874 25.34C20.7179 31.5189 16.4113 41.2425 11.6889 45.4366C7.99886 48.7138 5.25418 46.0616 2.84653 43.0857C-0.540873 37.4264 1.05332 37.7223 6.05804 34.6774C8.84749 32.9802 9.09639 30.5443 9.76507 27.5917C9.42644 27.0975 4.71884 27.0972 2.4906 24.8721C-0.219769 22.1656 -0.252277 15.4694 2.48948 12.868C7.95441 7.68277 12.0932 10.4276 16.6286 14.8448C16.6547 12.0299 17.7353 5.54387 19.3612 3.24416Z"/></svg>